<svg width="204" height="121" viewBox="0 0 204 121" fill="none" xmlns="http://www.w3.org/2000/svg">
<path d="M-1.52588e-05 2.3333C-1.54514e-05 2.1231 0.0414028 1.91497 0.121841 1.72077C0.20228 1.52658 0.320164 1.35012 0.468796 1.20148C0.617427 1.05285 0.793887 0.934961 0.988083 0.854523C1.18228 0.774084 1.39042 0.732673 1.60062 0.732674C1.81081 0.732673 2.01895 0.774084 2.21315 0.854523C2.40735 0.934961 2.58381 1.05285 2.73244 1.20148C2.88107 1.35012 2.99895 1.52658 3.07939 1.72077C3.15983 1.91497 3.20125 2.1231 3.20125 2.3333C3.20125 2.54349 3.15983 2.75164 3.07939 2.94583C2.99895 3.14003 2.88107 3.31647 2.73244 3.4651C2.58381 3.61373 2.40735 3.73164 2.21315 3.81208C2.01895 3.89252 1.81081 3.93391 1.60062 3.93391C1.39042 3.93391 1.18228 3.89252 0.988083 3.81208C0.793887 3.73164 0.617427 3.61373 0.468796 3.4651C0.320164 3.31647 0.20228 3.14003 0.121841 2.94583C0.0414028 2.75164 -1.54514e-05 2.54349 -1.52588e-05 2.3333ZM16.6667 2.3333C16.6667 2.1231 16.7081 1.91497 16.7885 1.72077C16.8689 1.52658 16.9868 1.35012 17.1355 1.20148C17.2841 1.05285 17.4606 0.934961 17.6548 0.854523C17.849 0.774084 18.0571 0.732673 18.2673 0.732674C18.4775 0.732673 18.6856 0.774084 18.8798 0.854523C19.074 0.934961 19.2505 1.05285 19.3991 1.20148C19.5477 1.35012 19.6656 1.52658 19.7461 1.72077C19.8265 1.91497 19.8679 2.1231 19.8679 2.3333C19.8679 2.54349 19.8265 2.75164 19.7461 2.94583C19.6656 3.14003 19.5477 3.31647 19.3991 3.4651C19.2505 3.61373 19.074 3.73164 18.8798 3.81208C18.6856 3.89252 18.4775 3.93391 18.2673 3.93391C18.0571 3.93391 17.849 3.89252 17.6548 3.81208C17.4606 3.73164 17.2841 3.61373 17.1355 3.4651C16.9868 3.31647 16.8689 3.14003 16.7885 2.94583C16.7081 2.75164 16.6667 2.54349 16.6667 2.3333ZM33.3333 2.3333C33.3333 2.1231 33.3747 1.91497 33.4552 1.72077C33.5356 1.52658 33.6535 1.35012 33.8022 1.20148C33.9508 1.05285 34.1272 0.934961 34.3214 0.854523C34.5156 0.774084 34.7238 0.732673 34.934 0.732674C35.1442 0.732673 35.3523 0.774084 35.5465 0.854523C35.7407 0.934961 35.9171 1.05285 36.0658 1.20148C36.2144 1.35012 36.3323 1.52658 36.4127 1.72077C36.4932 1.91497 36.5346 2.1231 36.5346 2.3333C36.5346 2.54349 36.4932 2.75164 36.4127 2.94583C36.3323 3.14003 36.2144 3.31647 36.0658 3.4651C35.9171 3.61373 35.7407 3.73164 35.5465 3.81208C35.3523 3.89252 35.1442 3.93391 34.934 3.93391C34.7238 3.93391 34.5156 3.89252 34.3214 3.81208C34.1272 3.73164 33.9508 3.61373 33.8022 3.4651C33.6535 3.31647 33.5356 3.14003 33.4552 2.94583C33.3747 2.75164 33.3333 2.54349 33.3333 2.3333ZM50 2.3333C50 2.1231 50.0414 1.91497 50.1218 1.72077C50.2023 1.52658 50.3202 1.35012 50.4688 1.20148C50.6175 1.05285 50.7939 0.934961 50.9881 0.854523C51.1823 0.774084 51.3904 0.732673 51.6006 0.732674C51.8108 0.732673 52.019 0.774084 52.2132 0.854523C52.4073 0.934961 52.5838 1.05285 52.7324 1.20148C52.8811 1.35012 52.999 1.52658 53.0794 1.72077C53.1598 1.91497 53.2012 2.1231 53.2012 2.3333C53.2012 2.54349 53.1598 2.75164 53.0794 2.94583C52.999 3.14003 52.8811 3.31647 52.7324 3.4651C52.5838 3.61373 52.4073 3.73164 52.2132 3.81208C52.019 3.89252 51.8108 3.93391 51.6006 3.93391C51.3904 3.93391 51.1823 3.89252 50.9881 3.81208C50.7939 3.73164 50.6175 3.61373 50.4688 3.4651C50.3202 3.31647 50.2023 3.14003 50.1218 2.94583C50.0414 2.75164 50 2.54349 50 2.3333ZM66.6667 2.3333C66.6667 2.1231 66.7081 1.91497 66.7885 1.72077C66.869 1.52658 66.9869 1.35012 67.1355 1.20148C67.2841 1.05285 67.4606 0.934961 67.6548 0.854523C67.849 0.774084 68.0571 0.732673 68.2673 0.732674C68.4775 0.732673 68.6856 0.774084 68.8798 0.854523C69.074 0.934961 69.2505 1.05285 69.3991 1.20148C69.5477 1.35012 69.6656 1.52658 69.7461 1.72077C69.8265 1.91497 69.8679 2.1231 69.8679 2.3333C69.8679 2.54349 69.8265 2.75164 69.7461 2.94583C69.6656 3.14003 69.5477 3.31647 69.3991 3.4651C69.2505 3.61373 69.074 3.73164 68.8798 3.81208C68.6856 3.89252 68.4775 3.93391 68.2673 3.93391C68.0571 3.93391 67.849 3.89252 67.6548 3.81208C67.4606 3.73164 67.2841 3.61373 67.1355 3.4651C66.9869 3.31647 66.869 3.14003 66.7885 2.94583C66.7081 2.75164 66.6667 2.54349 66.6667 2.3333ZM83.3333 2.3333C83.3333 2.1231 83.3747 1.91497 83.4552 1.72077C83.5356 1.52658 83.6535 1.35012 83.8022 1.20148C83.9508 1.05285 84.1272 0.934961 84.3214 0.854523C84.5156 0.774084 84.7238 0.732673 84.934 0.732674C85.1442 0.732673 85.3523 0.774084 85.5465 0.854523C85.7407 0.934961 85.9171 1.05285 86.0658 1.20148C86.2144 1.35012 86.3323 1.52658 86.4127 1.72077C86.4932 1.91497 86.5346 2.1231 86.5346 2.3333C86.5346 2.54349 86.4932 2.75164 86.4127 2.94583C86.3323 3.14003 86.2144 3.31647 86.0658 3.4651C85.9171 3.61373 85.7407 3.73164 85.5465 3.81208C85.3523 3.89252 85.1442 3.93391 84.934 3.93391C84.7238 3.93391 84.5156 3.89252 84.3214 3.81208C84.1272 3.73164 83.9508 3.61373 83.8022 3.4651C83.6535 3.31647 83.5356 3.14003 83.4552 2.94583C83.3747 2.75164 83.3333 2.54349 83.3333 2.3333ZM100 2.3333C100 2.1231 100.041 1.91497 100.122 1.72077C100.202 1.52658 100.32 1.35012 100.469 1.20148C100.617 1.05285 100.794 0.934961 100.988 0.854523C101.182 0.774084 101.39 0.732673 101.601 0.732674C101.811 0.732673 102.019 0.774084 102.213 0.854523C102.407 0.934961 102.584 1.05285 102.732 1.20148C102.881 1.35012 102.999 1.52658 103.079 1.72077C103.16 1.91497 103.201 2.1231 103.201 2.3333C103.201 2.54349 103.16 2.75164 103.079 2.94583C102.999 3.14003 102.881 3.31647 102.732 3.4651C102.584 3.61373 102.407 3.73164 102.213 3.81208C102.019 3.89252 101.811 3.93391 101.601 3.93391C101.39 3.93391 101.182 3.89252 100.988 3.81208C100.794 3.73164 100.617 3.61373 100.469 3.4651C100.32 3.31647 100.202 3.14003 100.122 2.94583C100.041 2.75164 100 2.54349 100 2.3333ZM116.667 2.3333C116.667 2.1231 116.708 1.91497 116.789 1.72077C116.869 1.52658 116.987 1.35012 117.135 1.20148C117.284 1.05285 117.461 0.934961 117.655 0.854523C117.849 0.774084 118.057 0.732673 118.267 0.732674C118.477 0.732673 118.686 0.774084 118.88 0.854523C119.074 0.934961 119.25 1.05285 119.399 1.20148C119.548 1.35012 119.666 1.52658 119.746 1.72077C119.827 1.91497 119.868 2.1231 119.868 2.3333C119.868 2.54349 119.827 2.75164 119.746 2.94583C119.666 3.14003 119.548 3.31647 119.399 3.4651C119.25 3.61373 119.074 3.73164 118.88 3.81208C118.686 3.89252 118.477 3.93391 118.267 3.93391C118.057 3.93391 117.849 3.89252 117.655 3.81208C117.461 3.73164 117.284 3.61373 117.135 3.4651C116.987 3.31647 116.869 3.14003 116.789 2.94583C116.708 2.75164 116.667 2.54349 116.667 2.3333ZM133.333 2.3333C133.333 2.1231 133.375 1.91497 133.455 1.72077C133.536 1.52658 133.654 1.35012 133.802 1.20148C133.951 1.05285 134.127 0.934961 134.321 0.854523C134.516 0.774084 134.724 0.732673 134.934 0.732674C135.144 0.732673 135.352 0.774084 135.546 0.854523C135.741 0.934961 135.917 1.05285 136.066 1.20148C136.214 1.35012 136.332 1.52658 136.413 1.72077C136.493 1.91497 136.535 2.1231 136.535 2.3333C136.535 2.54349 136.493 2.75164 136.413 2.94583C136.332 3.14003 136.214 3.31647 136.066 3.4651C135.917 3.61373 135.741 3.73164 135.546 3.81208C135.352 3.89252 135.144 3.93391 134.934 3.93391C134.724 3.93391 134.516 3.89252 134.321 3.81208C134.127 3.73164 133.951 3.61373 133.802 3.4651C133.654 3.31647 133.536 3.14003 133.455 2.94583C133.375 2.75164 133.333 2.54349 133.333 2.3333ZM150 2.3333C150 2.1231 150.041 1.91497 150.122 1.72077C150.202 1.52658 150.32 1.35012 150.469 1.20148C150.617 1.05285 150.794 0.934961 150.988 0.854523C151.182 0.774084 151.39 0.732673 151.601 0.732674C151.811 0.732673 152.019 0.774084 152.213 0.854523C152.407 0.934961 152.584 1.05285 152.732 1.20148C152.881 1.35012 152.999 1.52658 153.079 1.72077C153.16 1.91497 153.201 2.1231 153.201 2.3333C153.201 2.54349 153.16 2.75164 153.079 2.94583C152.999 3.14003 152.881 3.31647 152.732 3.4651C152.584 3.61373 152.407 3.73164 152.213 3.81208C152.019 3.89252 151.811 3.93391 151.601 3.93391C151.39 3.93391 151.182 3.89252 150.988 3.81208C150.794 3.73164 150.617 3.61373 150.469 3.4651C150.32 3.31647 150.202 3.14003 150.122 2.94583C150.041 2.75164 150 2.54349 150 2.3333ZM166.667 2.3333C166.667 2.1231 166.708 1.91497 166.789 1.72077C166.869 1.52658 166.987 1.35012 167.135 1.20148C167.284 1.05285 167.461 0.934961 167.655 0.854523C167.849 0.774084 168.057 0.732673 168.267 0.732674C168.477 0.732674 168.686 0.774084 168.88 0.854523C169.074 0.934961 169.25 1.05285 169.399 1.20148C169.548 1.35012 169.666 1.52658 169.746 1.72077C169.827 1.91497 169.868 2.1231 169.868 2.3333C169.868 2.54349 169.827 2.75164 169.746 2.94583C169.666 3.14003 169.548 3.31647 169.399 3.4651C169.25 3.61373 169.074 3.73164 168.88 3.81208C168.686 3.89252 168.477 3.93391 168.267 3.93391C168.057 3.93391 167.849 3.89252 167.655 3.81208C167.461 3.73164 167.284 3.61373 167.135 3.4651C166.987 3.31647 166.869 3.14003 166.789 2.94583C166.708 2.75164 166.667 2.54349 166.667 2.3333ZM183.333 2.3333C183.333 2.1231 183.375 1.91497 183.455 1.72077C183.536 1.52658 183.654 1.35012 183.802 1.20148C183.951 1.05285 184.127 0.934961 184.321 0.854523C184.516 0.774084 184.724 0.732674 184.934 0.732674C185.144 0.732674 185.352 0.774084 185.546 0.854523C185.741 0.934961 185.917 1.05285 186.066 1.20148C186.214 1.35012 186.332 1.52658 186.413 1.72077C186.493 1.91497 186.535 2.1231 186.535 2.3333C186.535 2.54349 186.493 2.75164 186.413 2.94583C186.332 3.14003 186.214 3.31647 186.066 3.4651C185.917 3.61373 185.741 3.73164 185.546 3.81208C185.352 3.89252 185.144 3.93391 184.934 3.93391C184.724 3.93391 184.516 3.89252 184.321 3.81208C184.127 3.73164 183.951 3.61373 183.802 3.4651C183.654 3.31647 183.536 3.14003 183.455 2.94583C183.375 2.75164 183.333 2.54349 183.333 2.3333ZM200 2.3333C200 2.1231 200.041 1.91497 200.122 1.72077C200.202 1.52658 200.32 1.35012 200.469 1.20148C200.617 1.05285 200.794 0.934961 200.988 0.854523C201.182 0.774084 201.39 0.732674 201.601 0.732674C201.811 0.732674 202.019 0.774084 202.213 0.854523C202.407 0.934961 202.584 1.05285 202.732 1.20148C202.881 1.35012 202.999 1.52658 203.079 1.72077C203.16 1.91497 203.201 2.1231 203.201 2.3333C203.201 2.54349 203.16 2.75164 203.079 2.94583C202.999 3.14003 202.881 3.31647 202.732 3.4651C202.584 3.61373 202.407 3.73164 202.213 3.81208C202.019 3.89252 201.811 3.93391 201.601 3.93391C201.39 3.93391 201.182 3.89252 200.988 3.81208C200.794 3.73164 200.617 3.61373 200.469 3.4651C200.32 3.31647 200.202 3.14003 200.122 2.94583C200.041 2.75164 200 2.54349 200 2.3333ZM-1.52588e-05 19C-1.54514e-05 18.7898 0.0414028 18.5816 0.121841 18.3874C0.20228 18.1932 0.320164 18.0168 0.468796 17.8682C0.617427 17.7195 0.793887 17.6016 0.988083 17.5212C1.18228 17.4407 1.39042 17.3993 1.60062 17.3993C1.81081 17.3993 2.01895 17.4407 2.21315 17.5212C2.40735 17.6016 2.58381 17.7195 2.73244 17.8682C2.88107 18.0168 2.99895 18.1932 3.07939 18.3874C3.15983 18.5816 3.20125 18.7898 3.20125 19C3.20125 19.2102 3.15983 19.4183 3.07939 19.6125C2.99895 19.8067 2.88107 19.9831 2.73244 20.1318C2.58381 20.2804 2.40735 20.3983 2.21315 20.4787C2.01895 20.5592 1.81081 20.6006 1.60062 20.6006C1.39042 20.6006 1.18228 20.5592 0.988083 20.4787C0.793887 20.3983 0.617427 20.2804 0.468796 20.1318C0.320164 19.9831 0.20228 19.8067 0.121841 19.6125C0.0414028 19.4183 -1.54514e-05 19.2102 -1.52588e-05 19ZM16.6667 19C16.6667 18.7898 16.7081 18.5816 16.7885 18.3874C16.8689 18.1932 16.9868 18.0168 17.1355 17.8682C17.2841 17.7195 17.4606 17.6016 17.6548 17.5212C17.849 17.4407 18.0571 17.3993 18.2673 17.3993C18.4775 17.3993 18.6856 17.4407 18.8798 17.5212C19.074 17.6016 19.2505 17.7195 19.3991 17.8682C19.5477 18.0168 19.6656 18.1932 19.7461 18.3874C19.8265 18.5816 19.8679 18.7898 19.8679 19C19.8679 19.2102 19.8265 19.4183 19.7461 19.6125C19.6656 19.8067 19.5477 19.9831 19.3991 20.1318C19.2505 20.2804 19.074 20.3983 18.8798 20.4787C18.6856 20.5592 18.4775 20.6006 18.2673 20.6006C18.0571 20.6006 17.849 20.5592 17.6548 20.4787C17.4606 20.3983 17.2841 20.2804 17.1355 20.1318C16.9868 19.9831 16.8689 19.8067 16.7885 19.6125C16.7081 19.4183 16.6667 19.2102 16.6667 19ZM33.3333 19C33.3333 18.7898 33.3747 18.5816 33.4552 18.3874C33.5356 18.1932 33.6535 18.0168 33.8022 17.8682C33.9508 17.7195 34.1272 17.6016 34.3214 17.5212C34.5156 17.4407 34.7238 17.3993 34.934 17.3993C35.1442 17.3993 35.3523 17.4407 35.5465 17.5212C35.7407 17.6016 35.9171 17.7195 36.0658 17.8682C36.2144 18.0168 36.3323 18.1932 36.4127 18.3874C36.4932 18.5816 36.5346 18.7898 36.5346 19C36.5346 19.2102 36.4932 19.4183 36.4127 19.6125C36.3323 19.8067 36.2144 19.9831 36.0658 20.1318C35.9171 20.2804 35.7407 20.3983 35.5465 20.4787C35.3523 20.5592 35.1442 20.6006 34.934 20.6006C34.7238 20.6006 34.5156 20.5592 34.3214 20.4787C34.1272 20.3983 33.9508 20.2804 33.8022 20.1318C33.6535 19.9831 33.5356 19.8067 33.4552 19.6125C33.3747 19.4183 33.3333 19.2102 33.3333 19ZM50 19C50 18.7898 50.0414 18.5816 50.1218 18.3874C50.2023 18.1932 50.3202 18.0168 50.4688 17.8682C50.6175 17.7195 50.7939 17.6016 50.9881 17.5212C51.1823 17.4407 51.3904 17.3993 51.6006 17.3993C51.8108 17.3993 52.019 17.4407 52.2132 17.5212C52.4073 17.6016 52.5838 17.7195 52.7324 17.8682C52.8811 18.0168 52.999 18.1932 53.0794 18.3874C53.1598 18.5816 53.2012 18.7898 53.2012 19C53.2012 19.2102 53.1598 19.4183 53.0794 19.6125C52.999 19.8067 52.8811 19.9831 52.7324 20.1318C52.5838 20.2804 52.4073 20.3983 52.2132 20.4787C52.019 20.5592 51.8108 20.6006 51.6006 20.6006C51.3904 20.6006 51.1823 20.5592 50.9881 20.4787C50.7939 20.3983 50.6175 20.2804 50.4688 20.1318C50.3202 19.9831 50.2023 19.8067 50.1218 19.6125C50.0414 19.4183 50 19.2102 50 19ZM66.6667 19C66.6667 18.7898 66.7081 18.5816 66.7885 18.3874C66.869 18.1932 66.9869 18.0168 67.1355 17.8682C67.2841 17.7195 67.4606 17.6016 67.6548 17.5212C67.849 17.4407 68.0571 17.3993 68.2673 17.3993C68.4775 17.3993 68.6856 17.4407 68.8798 17.5212C69.074 17.6016 69.2505 17.7195 69.3991 17.8682C69.5477 18.0168 69.6656 18.1932 69.7461 18.3874C69.8265 18.5816 69.8679 18.7898 69.8679 19C69.8679 19.2102 69.8265 19.4183 69.7461 19.6125C69.6656 19.8067 69.5477 19.9831 69.3991 20.1318C69.2505 20.2804 69.074 20.3983 68.8798 20.4787C68.6856 20.5592 68.4775 20.6006 68.2673 20.6006C68.0571 20.6006 67.849 20.5592 67.6548 20.4787C67.4606 20.3983 67.2841 20.2804 67.1355 20.1318C66.9869 19.9831 66.869 19.8067 66.7885 19.6125C66.7081 19.4183 66.6667 19.2102 66.6667 19ZM83.3333 19C83.3333 18.7898 83.3747 18.5816 83.4552 18.3874C83.5356 18.1932 83.6535 18.0168 83.8022 17.8682C83.9508 17.7195 84.1272 17.6016 84.3214 17.5212C84.5156 17.4407 84.7238 17.3993 84.934 17.3993C85.1442 17.3993 85.3523 17.4407 85.5465 17.5212C85.7407 17.6016 85.9171 17.7195 86.0658 17.8682C86.2144 18.0168 86.3323 18.1932 86.4127 18.3874C86.4932 18.5816 86.5346 18.7898 86.5346 19C86.5346 19.2102 86.4932 19.4183 86.4127 19.6125C86.3323 19.8067 86.2144 19.9831 86.0658 20.1318C85.9171 20.2804 85.7407 20.3983 85.5465 20.4787C85.3523 20.5592 85.1442 20.6006 84.934 20.6006C84.7238 20.6006 84.5156 20.5592 84.3214 20.4787C84.1272 20.3983 83.9508 20.2804 83.8022 20.1318C83.6535 19.9831 83.5356 19.8067 83.4552 19.6125C83.3747 19.4183 83.3333 19.2102 83.3333 19ZM100 19C100 18.7898 100.041 18.5816 100.122 18.3874C100.202 18.1932 100.32 18.0168 100.469 17.8682C100.617 17.7195 100.794 17.6016 100.988 17.5212C101.182 17.4407 101.39 17.3993 101.601 17.3993C101.811 17.3993 102.019 17.4407 102.213 17.5212C102.407 17.6016 102.584 17.7195 102.732 17.8682C102.881 18.0168 102.999 18.1932 103.079 18.3874C103.16 18.5816 103.201 18.7898 103.201 19C103.201 19.2102 103.16 19.4183 103.079 19.6125C102.999 19.8067 102.881 19.9831 102.732 20.1318C102.584 20.2804 102.407 20.3983 102.213 20.4787C102.019 20.5592 101.811 20.6006 101.601 20.6006C101.39 20.6006 101.182 20.5592 100.988 20.4787C100.794 20.3983 100.617 20.2804 100.469 20.1318C100.32 19.9831 100.202 19.8067 100.122 19.6125C100.041 19.4183 100 19.2102 100 19ZM116.667 19C116.667 18.7898 116.708 18.5816 116.789 18.3874C116.869 18.1932 116.987 18.0168 117.135 17.8682C117.284 17.7195 117.461 17.6016 117.655 17.5212C117.849 17.4407 118.057 17.3993 118.267 17.3993C118.477 17.3993 118.686 17.4407 118.88 17.5212C119.074 17.6016 119.25 17.7195 119.399 17.8682C119.548 18.0168 119.666 18.1932 119.746 18.3874C119.827 18.5816 119.868 18.7898 119.868 19C119.868 19.2102 119.827 19.4183 119.746 19.6125C119.666 19.8067 119.548 19.9831 119.399 20.1318C119.25 20.2804 119.074 20.3983 118.88 20.4787C118.686 20.5592 118.477 20.6006 118.267 20.6006C118.057 20.6006 117.849 20.5592 117.655 20.4787C117.461 20.3983 117.284 20.2804 117.135 20.1318C116.987 19.9831 116.869 19.8067 116.789 19.6125C116.708 19.4183 116.667 19.2102 116.667 19ZM133.333 19C133.333 18.7898 133.375 18.5816 133.455 18.3874C133.536 18.1932 133.654 18.0168 133.802 17.8682C133.951 17.7195 134.127 17.6016 134.321 17.5212C134.516 17.4407 134.724 17.3993 134.934 17.3993C135.144 17.3993 135.352 17.4407 135.546 17.5212C135.741 17.6016 135.917 17.7195 136.066 17.8682C136.214 18.0168 136.332 18.1932 136.413 18.3874C136.493 18.5816 136.535 18.7898 136.535 19C136.535 19.2102 136.493 19.4183 136.413 19.6125C136.332 19.8067 136.214 19.9831 136.066 20.1318C135.917 20.2804 135.741 20.3983 135.546 20.4787C135.352 20.5592 135.144 20.6006 134.934 20.6006C134.724 20.6006 134.516 20.5592 134.321 20.4787C134.127 20.3983 133.951 20.2804 133.802 20.1318C133.654 19.9831 133.536 19.8067 133.455 19.6125C133.375 19.4183 133.333 19.2102 133.333 19ZM150 19C150 18.7898 150.041 18.5816 150.122 18.3874C150.202 18.1932 150.32 18.0168 150.469 17.8682C150.617 17.7195 150.794 17.6016 150.988 17.5212C151.182 17.4407 151.39 17.3993 151.601 17.3993C151.811 17.3993 152.019 17.4407 152.213 17.5212C152.407 17.6016 152.584 17.7195 152.732 17.8682C152.881 18.0168 152.999 18.1932 153.079 18.3874C153.16 18.5816 153.201 18.7898 153.201 19C153.201 19.2102 153.16 19.4183 153.079 19.6125C152.999 19.8067 152.881 19.9831 152.732 20.1318C152.584 20.2804 152.407 20.3983 152.213 20.4787C152.019 20.5592 151.811 20.6006 151.601 20.6006C151.39 20.6006 151.182 20.5592 150.988 20.4787C150.794 20.3983 150.617 20.2804 150.469 20.1318C150.32 19.9831 150.202 19.8067 150.122 19.6125C150.041 19.4183 150 19.2102 150 19ZM166.667 19C166.667 18.7898 166.708 18.5816 166.789 18.3874C166.869 18.1932 166.987 18.0168 167.135 17.8682C167.284 17.7195 167.461 17.6016 167.655 17.5212C167.849 17.4407 168.057 17.3993 168.267 17.3993C168.477 17.3993 168.686 17.4407 168.88 17.5212C169.074 17.6016 169.25 17.7195 169.399 17.8682C169.548 18.0168 169.666 18.1932 169.746 18.3874C169.827 18.5816 169.868 18.7898 169.868 19C169.868 19.2102 169.827 19.4183 169.746 19.6125C169.666 19.8067 169.548 19.9831 169.399 20.1318C169.25 20.2804 169.074 20.3983 168.88 20.4787C168.686 20.5592 168.477 20.6006 168.267 20.6006C168.057 20.6006 167.849 20.5592 167.655 20.4787C167.461 20.3983 167.284 20.2804 167.135 20.1318C166.987 19.9831 166.869 19.8067 166.789 19.6125C166.708 19.4183 166.667 19.2102 166.667 19ZM183.333 19C183.333 18.7898 183.375 18.5816 183.455 18.3874C183.536 18.1932 183.654 18.0168 183.802 17.8682C183.951 17.7195 184.127 17.6016 184.321 17.5212C184.516 17.4407 184.724 17.3993 184.934 17.3993C185.144 17.3993 185.352 17.4407 185.546 17.5212C185.741 17.6016 185.917 17.7195 186.066 17.8682C186.214 18.0168 186.332 18.1932 186.413 18.3874C186.493 18.5816 186.535 18.7898 186.535 19C186.535 19.2102 186.493 19.4183 186.413 19.6125C186.332 19.8067 186.214 19.9831 186.066 20.1318C185.917 20.2804 185.741 20.3983 185.546 20.4787C185.352 20.5592 185.144 20.6006 184.934 20.6006C184.724 20.6006 184.516 20.5592 184.321 20.4787C184.127 20.3983 183.951 20.2804 183.802 20.1318C183.654 19.9831 183.536 19.8067 183.455 19.6125C183.375 19.4183 183.333 19.2102 183.333 19ZM-1.52588e-05 35.6666C-1.54514e-05 35.4564 0.0414028 35.2483 0.121841 35.0541C0.20228 34.8599 0.320164 34.6835 0.468796 34.5348C0.617427 34.3862 0.793887 34.2683 0.988083 34.1879C1.18228 34.1074 1.39042 34.066 1.60062 34.066C1.81081 34.066 2.01895 34.1074 2.21315 34.1879C2.40735 34.2683 2.58381 34.3862 2.73244 34.5348C2.88107 34.6835 2.99895 34.8599 3.07939 35.0541C3.15983 35.2483 3.20125 35.4564 3.20125 35.6666C3.20125 35.8768 3.15983 36.085 3.07939 36.2792C2.99895 36.4734 2.88107 36.6498 2.73244 36.7984C2.58381 36.9471 2.40735 37.065 2.21315 37.1454C2.01895 37.2258 1.81081 37.2673 1.60062 37.2673C1.39042 37.2673 1.18228 37.2258 0.988083 37.1454C0.793887 37.065 0.617427 36.9471 0.468796 36.7984C0.320164 36.6498 0.20228 36.4734 0.121841 36.2792C0.0414028 36.085 -1.54514e-05 35.8768 -1.52588e-05 35.6666ZM16.6667 35.6666C16.6667 35.4564 16.7081 35.2483 16.7885 35.0541C16.8689 34.8599 16.9868 34.6835 17.1355 34.5348C17.2841 34.3862 17.4606 34.2683 17.6548 34.1879C17.849 34.1074 18.0571 34.066 18.2673 34.066C18.4775 34.066 18.6856 34.1074 18.8798 34.1879C19.074 34.2683 19.2505 34.3862 19.3991 34.5348C19.5477 34.6835 19.6656 34.8599 19.7461 35.0541C19.8265 35.2483 19.8679 35.4564 19.8679 35.6666C19.8679 35.8768 19.8265 36.085 19.7461 36.2792C19.6656 36.4734 19.5477 36.6498 19.3991 36.7984C19.2505 36.9471 19.074 37.065 18.8798 37.1454C18.6856 37.2258 18.4775 37.2673 18.2673 37.2673C18.0571 37.2673 17.849 37.2258 17.6548 37.1454C17.4606 37.065 17.2841 36.9471 17.1355 36.7984C16.9868 36.6498 16.8689 36.4734 16.7885 36.2792C16.7081 36.085 16.6667 35.8768 16.6667 35.6666ZM33.3333 35.6666C33.3333 35.4564 33.3747 35.2483 33.4552 35.0541C33.5356 34.8599 33.6535 34.6835 33.8022 34.5348C33.9508 34.3862 34.1272 34.2683 34.3214 34.1879C34.5156 34.1074 34.7238 34.066 34.934 34.066C35.1442 34.066 35.3523 34.1074 35.5465 34.1879C35.7407 34.2683 35.9171 34.3862 36.0658 34.5348C36.2144 34.6835 36.3323 34.8599 36.4127 35.0541C36.4932 35.2483 36.5346 35.4564 36.5346 35.6666C36.5346 35.8768 36.4932 36.085 36.4127 36.2792C36.3323 36.4734 36.2144 36.6498 36.0658 36.7984C35.9171 36.9471 35.7407 37.065 35.5465 37.1454C35.3523 37.2258 35.1442 37.2673 34.934 37.2673C34.7238 37.2673 34.5156 37.2258 34.3214 37.1454C34.1272 37.065 33.9508 36.9471 33.8022 36.7984C33.6535 36.6498 33.5356 36.4734 33.4552 36.2792C33.3747 36.085 33.3333 35.8768 33.3333 35.6666ZM50 35.6666C50 35.4564 50.0414 35.2483 50.1218 35.0541C50.2023 34.8599 50.3202 34.6835 50.4688 34.5348C50.6175 34.3862 50.7939 34.2683 50.9881 34.1879C51.1823 34.1074 51.3904 34.066 51.6006 34.066C51.8108 34.066 52.019 34.1074 52.2132 34.1879C52.4073 34.2683 52.5838 34.3862 52.7324 34.5348C52.8811 34.6835 52.999 34.8599 53.0794 35.0541C53.1598 35.2483 53.2012 35.4564 53.2012 35.6666C53.2012 35.8768 53.1598 36.085 53.0794 36.2792C52.999 36.4734 52.8811 36.6498 52.7324 36.7984C52.5838 36.9471 52.4073 37.065 52.2132 37.1454C52.019 37.2258 51.8108 37.2673 51.6006 37.2673C51.3904 37.2673 51.1823 37.2258 50.9881 37.1454C50.7939 37.065 50.6175 36.9471 50.4688 36.7984C50.3202 36.6498 50.2023 36.4734 50.1218 36.2792C50.0414 36.085 50 35.8768 50 35.6666ZM66.6667 35.6666C66.6667 35.4564 66.7081 35.2483 66.7885 35.0541C66.869 34.8599 66.9869 34.6835 67.1355 34.5348C67.2841 34.3862 67.4606 34.2683 67.6548 34.1879C67.849 34.1074 68.0571 34.066 68.2673 34.066C68.4775 34.066 68.6856 34.1074 68.8798 34.1879C69.074 34.2683 69.2505 34.3862 69.3991 34.5348C69.5477 34.6835 69.6656 34.8599 69.7461 35.0541C69.8265 35.2483 69.8679 35.4564 69.8679 35.6666C69.8679 35.8768 69.8265 36.085 69.7461 36.2792C69.6656 36.4734 69.5477 36.6498 69.3991 36.7984C69.2505 36.9471 69.074 37.065 68.8798 37.1454C68.6856 37.2258 68.4775 37.2673 68.2673 37.2673C68.0571 37.2673 67.849 37.2258 67.6548 37.1454C67.4606 37.065 67.2841 36.9471 67.1355 36.7984C66.9869 36.6498 66.869 36.4734 66.7885 36.2792C66.7081 36.085 66.6667 35.8768 66.6667 35.6666ZM83.3333 35.6666C83.3333 35.4564 83.3747 35.2483 83.4552 35.0541C83.5356 34.8599 83.6535 34.6835 83.8022 34.5348C83.9508 34.3862 84.1272 34.2683 84.3214 34.1879C84.5156 34.1074 84.7238 34.066 84.934 34.066C85.1442 34.066 85.3523 34.1074 85.5465 34.1879C85.7407 34.2683 85.9171 34.3862 86.0658 34.5348C86.2144 34.6835 86.3323 34.8599 86.4127 35.0541C86.4932 35.2483 86.5346 35.4564 86.5346 35.6666C86.5346 35.8768 86.4932 36.085 86.4127 36.2792C86.3323 36.4734 86.2144 36.6498 86.0658 36.7984C85.9171 36.9471 85.7407 37.065 85.5465 37.1454C85.3523 37.2258 85.1442 37.2673 84.934 37.2673C84.7238 37.2673 84.5156 37.2258 84.3214 37.1454C84.1272 37.065 83.9508 36.9471 83.8022 36.7984C83.6535 36.6498 83.5356 36.4734 83.4552 36.2792C83.3747 36.085 83.3333 35.8768 83.3333 35.6666ZM100 35.6666C100 35.4564 100.041 35.2483 100.122 35.0541C100.202 34.8599 100.32 34.6835 100.469 34.5348C100.617 34.3862 100.794 34.2683 100.988 34.1879C101.182 34.1074 101.39 34.066 101.601 34.066C101.811 34.066 102.019 34.1074 102.213 34.1879C102.407 34.2683 102.584 34.3862 102.732 34.5348C102.881 34.6835 102.999 34.8599 103.079 35.0541C103.16 35.2483 103.201 35.4564 103.201 35.6666C103.201 35.8768 103.16 36.085 103.079 36.2792C102.999 36.4734 102.881 36.6498 102.732 36.7984C102.584 36.9471 102.407 37.065 102.213 37.1454C102.019 37.2258 101.811 37.2673 101.601 37.2673C101.39 37.2673 101.182 37.2258 100.988 37.1454C100.794 37.065 100.617 36.9471 100.469 36.7984C100.32 36.6498 100.202 36.4734 100.122 36.2792C100.041 36.085 100 35.8768 100 35.6666ZM116.667 35.6666C116.667 35.4564 116.708 35.2483 116.789 35.0541C116.869 34.8599 116.987 34.6835 117.135 34.5348C117.284 34.3862 117.461 34.2683 117.655 34.1879C117.849 34.1074 118.057 34.066 118.267 34.066C118.477 34.066 118.686 34.1074 118.88 34.1879C119.074 34.2683 119.25 34.3862 119.399 34.5348C119.548 34.6835 119.666 34.8599 119.746 35.0541C119.827 35.2483 119.868 35.4564 119.868 35.6666C119.868 35.8768 119.827 36.085 119.746 36.2792C119.666 36.4734 119.548 36.6498 119.399 36.7984C119.25 36.9471 119.074 37.065 118.88 37.1454C118.686 37.2258 118.477 37.2673 118.267 37.2673C118.057 37.2673 117.849 37.2258 117.655 37.1454C117.461 37.065 117.284 36.9471 117.135 36.7984C116.987 36.6498 116.869 36.4734 116.789 36.2792C116.708 36.085 116.667 35.8768 116.667 35.6666ZM133.333 35.6666C133.333 35.4564 133.375 35.2483 133.455 35.0541C133.536 34.8599 133.654 34.6835 133.802 34.5348C133.951 34.3862 134.127 34.2683 134.321 34.1879C134.516 34.1074 134.724 34.066 134.934 34.066C135.144 34.066 135.352 34.1074 135.546 34.1879C135.741 34.2683 135.917 34.3862 136.066 34.5348C136.214 34.6835 136.332 34.8599 136.413 35.0541C136.493 35.2483 136.535 35.4564 136.535 35.6666C136.535 35.8768 136.493 36.085 136.413 36.2792C136.332 36.4734 136.214 36.6498 136.066 36.7984C135.917 36.9471 135.741 37.065 135.546 37.1454C135.352 37.2258 135.144 37.2673 134.934 37.2673C134.724 37.2673 134.516 37.2258 134.321 37.1454C134.127 37.065 133.951 36.9471 133.802 36.7984C133.654 36.6498 133.536 36.4734 133.455 36.2792C133.375 36.085 133.333 35.8768 133.333 35.6666ZM150 35.6666C150 35.4564 150.041 35.2483 150.122 35.0541C150.202 34.8599 150.32 34.6835 150.469 34.5348C150.617 34.3862 150.794 34.2683 150.988 34.1879C151.182 34.1074 151.39 34.066 151.601 34.066C151.811 34.066 152.019 34.1074 152.213 34.1879C152.407 34.2683 152.584 34.3862 152.732 34.5348C152.881 34.6835 152.999 34.8599 153.079 35.0541C153.16 35.2483 153.201 35.4564 153.201 35.6666C153.201 35.8768 153.16 36.085 153.079 36.2792C152.999 36.4734 152.881 36.6498 152.732 36.7984C152.584 36.9471 152.407 37.065 152.213 37.1454C152.019 37.2258 151.811 37.2673 151.601 37.2673C151.39 37.2673 151.182 37.2258 150.988 37.1454C150.794 37.065 150.617 36.9471 150.469 36.7984C150.32 36.6498 150.202 36.4734 150.122 36.2792C150.041 36.085 150 35.8768 150 35.6666ZM166.667 35.6666C166.667 35.4564 166.708 35.2483 166.789 35.0541C166.869 34.8599 166.987 34.6835 167.135 34.5348C167.284 34.3862 167.461 34.2683 167.655 34.1879C167.849 34.1074 168.057 34.066 168.267 34.066C168.477 34.066 168.686 34.1074 168.88 34.1879C169.074 34.2683 169.25 34.3862 169.399 34.5348C169.548 34.6835 169.666 34.8599 169.746 35.0541C169.827 35.2483 169.868 35.4564 169.868 35.6666C169.868 35.8768 169.827 36.085 169.746 36.2792C169.666 36.4734 169.548 36.6498 169.399 36.7984C169.25 36.9471 169.074 37.065 168.88 37.1454C168.686 37.2258 168.477 37.2673 168.267 37.2673C168.057 37.2673 167.849 37.2258 167.655 37.1454C167.461 37.065 167.284 36.9471 167.135 36.7984C166.987 36.6498 166.869 36.4734 166.789 36.2792C166.708 36.085 166.667 35.8768 166.667 35.6666ZM183.333 35.6666C183.333 35.4564 183.375 35.2483 183.455 35.0541C183.536 34.8599 183.654 34.6835 183.802 34.5348C183.951 34.3862 184.127 34.2683 184.321 34.1879C184.516 34.1074 184.724 34.066 184.934 34.066C185.144 34.066 185.352 34.1074 185.546 34.1879C185.741 34.2683 185.917 34.3862 186.066 34.5348C186.214 34.6835 186.332 34.8599 186.413 35.0541C186.493 35.2483 186.535 35.4564 186.535 35.6666C186.535 35.8768 186.493 36.085 186.413 36.2792C186.332 36.4734 186.214 36.6498 186.066 36.7984C185.917 36.9471 185.741 37.065 185.546 37.1454C185.352 37.2258 185.144 37.2673 184.934 37.2673C184.724 37.2673 184.516 37.2258 184.321 37.1454C184.127 37.065 183.951 36.9471 183.802 36.7984C183.654 36.6498 183.536 36.4734 183.455 36.2792C183.375 36.085 183.333 35.8768 183.333 35.6666ZM200 35.6666C200 35.4564 200.041 35.2483 200.122 35.0541C200.202 34.8599 200.32 34.6835 200.469 34.5348C200.617 34.3862 200.794 34.2683 200.988 34.1879C201.182 34.1074 201.39 34.066 201.601 34.066C201.811 34.066 202.019 34.1074 202.213 34.1879C202.407 34.2683 202.584 34.3862 202.732 34.5348C202.881 34.6835 202.999 34.8599 203.079 35.0541C203.16 35.2483 203.201 35.4564 203.201 35.6666C203.201 35.8768 203.16 36.085 203.079 36.2792C202.999 36.4734 202.881 36.6498 202.732 36.7984C202.584 36.9471 202.407 37.065 202.213 37.1454C202.019 37.2258 201.811 37.2673 201.601 37.2673C201.39 37.2673 201.182 37.2258 200.988 37.1454C200.794 37.065 200.617 36.9471 200.469 36.7984C200.32 36.6498 200.202 36.4734 200.122 36.2792C200.041 36.085 200 35.8768 200 35.6666ZM-1.52588e-05 52.3333C-1.54514e-05 52.1231 0.0414028 51.915 0.121841 51.7208C0.20228 51.5266 0.320164 51.3501 0.468796 51.2015C0.617427 51.0529 0.793887 50.935 0.988083 50.8545C1.18228 50.7741 1.39042 50.7327 1.60062 50.7327C1.81081 50.7327 2.01895 50.7741 2.21315 50.8545C2.40735 50.935 2.58381 51.0529 2.73244 51.2015C2.88107 51.3501 2.99895 51.5266 3.07939 51.7208C3.15983 51.915 3.20125 52.1231 3.20125 52.3333C3.20125 52.5435 3.15983 52.7516 3.07939 52.9458C2.99895 53.14 2.88107 53.3165 2.73244 53.4651C2.58381 53.6137 2.40735 53.7316 2.21315 53.8121C2.01895 53.8925 1.81081 53.9339 1.60062 53.9339C1.39042 53.9339 1.18228 53.8925 0.988083 53.8121C0.793887 53.7316 0.617427 53.6137 0.468796 53.4651C0.320164 53.3165 0.20228 53.14 0.121841 52.9458C0.0414028 52.7516 -1.54514e-05 52.5435 -1.52588e-05 52.3333ZM16.6667 52.3333C16.6667 52.1231 16.7081 51.915 16.7885 51.7208C16.8689 51.5266 16.9868 51.3501 17.1355 51.2015C17.2841 51.0529 17.4606 50.935 17.6548 50.8545C17.849 50.7741 18.0571 50.7327 18.2673 50.7327C18.4775 50.7327 18.6856 50.7741 18.8798 50.8545C19.074 50.935 19.2505 51.0529 19.3991 51.2015C19.5477 51.3501 19.6656 51.5266 19.7461 51.7208C19.8265 51.915 19.8679 52.1231 19.8679 52.3333C19.8679 52.5435 19.8265 52.7516 19.7461 52.9458C19.6656 53.14 19.5477 53.3165 19.3991 53.4651C19.2505 53.6137 19.074 53.7316 18.8798 53.8121C18.6856 53.8925 18.4775 53.9339 18.2673 53.9339C18.0571 53.9339 17.849 53.8925 17.6548 53.8121C17.4606 53.7316 17.2841 53.6137 17.1355 53.4651C16.9868 53.3165 16.8689 53.14 16.7885 52.9458C16.7081 52.7516 16.6667 52.5435 16.6667 52.3333ZM33.3333 52.3333C33.3333 52.1231 33.3747 51.915 33.4552 51.7208C33.5356 51.5266 33.6535 51.3501 33.8022 51.2015C33.9508 51.0529 34.1272 50.935 34.3214 50.8545C34.5156 50.7741 34.7238 50.7327 34.934 50.7327C35.1442 50.7327 35.3523 50.7741 35.5465 50.8545C35.7407 50.935 35.9171 51.0529 36.0658 51.2015C36.2144 51.3501 36.3323 51.5266 36.4127 51.7208C36.4932 51.915 36.5346 52.1231 36.5346 52.3333C36.5346 52.5435 36.4932 52.7516 36.4127 52.9458C36.3323 53.14 36.2144 53.3165 36.0658 53.4651C35.9171 53.6137 35.7407 53.7316 35.5465 53.8121C35.3523 53.8925 35.1442 53.9339 34.934 53.9339C34.7238 53.9339 34.5156 53.8925 34.3214 53.8121C34.1272 53.7316 33.9508 53.6137 33.8022 53.4651C33.6535 53.3165 33.5356 53.14 33.4552 52.9458C33.3747 52.7516 33.3333 52.5435 33.3333 52.3333ZM50 52.3333C50 52.1231 50.0414 51.915 50.1218 51.7208C50.2023 51.5266 50.3202 51.3501 50.4688 51.2015C50.6175 51.0529 50.7939 50.935 50.9881 50.8545C51.1823 50.7741 51.3904 50.7327 51.6006 50.7327C51.8108 50.7327 52.019 50.7741 52.2132 50.8545C52.4073 50.935 52.5838 51.0529 52.7324 51.2015C52.8811 51.3501 52.999 51.5266 53.0794 51.7208C53.1598 51.915 53.2012 52.1231 53.2012 52.3333C53.2012 52.5435 53.1598 52.7516 53.0794 52.9458C52.999 53.14 52.8811 53.3165 52.7324 53.4651C52.5838 53.6137 52.4073 53.7316 52.2132 53.8121C52.019 53.8925 51.8108 53.9339 51.6006 53.9339C51.3904 53.9339 51.1823 53.8925 50.9881 53.8121C50.7939 53.7316 50.6175 53.6137 50.4688 53.4651C50.3202 53.3165 50.2023 53.14 50.1218 52.9458C50.0414 52.7516 50 52.5435 50 52.3333ZM66.6667 52.3333C66.6667 52.1231 66.7081 51.915 66.7885 51.7208C66.869 51.5266 66.9869 51.3501 67.1355 51.2015C67.2841 51.0529 67.4606 50.935 67.6548 50.8545C67.849 50.7741 68.0571 50.7327 68.2673 50.7327C68.4775 50.7327 68.6856 50.7741 68.8798 50.8545C69.074 50.935 69.2505 51.0529 69.3991 51.2015C69.5477 51.3501 69.6656 51.5266 69.7461 51.7208C69.8265 51.915 69.8679 52.1231 69.8679 52.3333C69.8679 52.5435 69.8265 52.7516 69.7461 52.9458C69.6656 53.14 69.5477 53.3165 69.3991 53.4651C69.2505 53.6137 69.074 53.7316 68.8798 53.8121C68.6856 53.8925 68.4775 53.9339 68.2673 53.9339C68.0571 53.9339 67.849 53.8925 67.6548 53.8121C67.4606 53.7316 67.2841 53.6137 67.1355 53.4651C66.9869 53.3165 66.869 53.14 66.7885 52.9458C66.7081 52.7516 66.6667 52.5435 66.6667 52.3333ZM83.3333 52.3333C83.3333 52.1231 83.3747 51.915 83.4552 51.7208C83.5356 51.5266 83.6535 51.3501 83.8022 51.2015C83.9508 51.0529 84.1272 50.935 84.3214 50.8545C84.5156 50.7741 84.7238 50.7327 84.934 50.7327C85.1442 50.7327 85.3523 50.7741 85.5465 50.8545C85.7407 50.935 85.9171 51.0529 86.0658 51.2015C86.2144 51.3501 86.3323 51.5266 86.4127 51.7208C86.4932 51.915 86.5346 52.1231 86.5346 52.3333C86.5346 52.5435 86.4932 52.7516 86.4127 52.9458C86.3323 53.14 86.2144 53.3165 86.0658 53.4651C85.9171 53.6137 85.7407 53.7316 85.5465 53.8121C85.3523 53.8925 85.1442 53.9339 84.934 53.9339C84.7238 53.9339 84.5156 53.8925 84.3214 53.8121C84.1272 53.7316 83.9508 53.6137 83.8022 53.4651C83.6535 53.3165 83.5356 53.14 83.4552 52.9458C83.3747 52.7516 83.3333 52.5435 83.3333 52.3333ZM100 52.3333C100 52.1231 100.041 51.915 100.122 51.7208C100.202 51.5266 100.32 51.3501 100.469 51.2015C100.617 51.0529 100.794 50.935 100.988 50.8545C101.182 50.7741 101.39 50.7327 101.601 50.7327C101.811 50.7327 102.019 50.7741 102.213 50.8545C102.407 50.935 102.584 51.0529 102.732 51.2015C102.881 51.3501 102.999 51.5266 103.079 51.7208C103.16 51.915 103.201 52.1231 103.201 52.3333C103.201 52.5435 103.16 52.7516 103.079 52.9458C102.999 53.14 102.881 53.3165 102.732 53.4651C102.584 53.6137 102.407 53.7316 102.213 53.8121C102.019 53.8925 101.811 53.9339 101.601 53.9339C101.39 53.9339 101.182 53.8925 100.988 53.8121C100.794 53.7316 100.617 53.6137 100.469 53.4651C100.32 53.3165 100.202 53.14 100.122 52.9458C100.041 52.7516 100 52.5435 100 52.3333ZM116.667 52.3333C116.667 52.1231 116.708 51.915 116.789 51.7208C116.869 51.5266 116.987 51.3501 117.135 51.2015C117.284 51.0529 117.461 50.935 117.655 50.8545C117.849 50.7741 118.057 50.7327 118.267 50.7327C118.477 50.7327 118.686 50.7741 118.88 50.8545C119.074 50.935 119.25 51.0529 119.399 51.2015C119.548 51.3501 119.666 51.5266 119.746 51.7208C119.827 51.915 119.868 52.1231 119.868 52.3333C119.868 52.5435 119.827 52.7516 119.746 52.9458C119.666 53.14 119.548 53.3165 119.399 53.4651C119.25 53.6137 119.074 53.7316 118.88 53.8121C118.686 53.8925 118.477 53.9339 118.267 53.9339C118.057 53.9339 117.849 53.8925 117.655 53.8121C117.461 53.7316 117.284 53.6137 117.135 53.4651C116.987 53.3165 116.869 53.14 116.789 52.9458C116.708 52.7516 116.667 52.5435 116.667 52.3333ZM133.333 52.3333C133.333 52.1231 133.375 51.915 133.455 51.7208C133.536 51.5266 133.654 51.3501 133.802 51.2015C133.951 51.0529 134.127 50.935 134.321 50.8545C134.516 50.7741 134.724 50.7327 134.934 50.7327C135.144 50.7327 135.352 50.7741 135.546 50.8545C135.741 50.935 135.917 51.0529 136.066 51.2015C136.214 51.3501 136.332 51.5266 136.413 51.7208C136.493 51.915 136.535 52.1231 136.535 52.3333C136.535 52.5435 136.493 52.7516 136.413 52.9458C136.332 53.14 136.214 53.3165 136.066 53.4651C135.917 53.6137 135.741 53.7316 135.546 53.8121C135.352 53.8925 135.144 53.9339 134.934 53.9339C134.724 53.9339 134.516 53.8925 134.321 53.8121C134.127 53.7316 133.951 53.6137 133.802 53.4651C133.654 53.3165 133.536 53.14 133.455 52.9458C133.375 52.7516 133.333 52.5435 133.333 52.3333ZM150 52.3333C150 52.1231 150.041 51.915 150.122 51.7208C150.202 51.5266 150.32 51.3501 150.469 51.2015C150.617 51.0529 150.794 50.935 150.988 50.8545C151.182 50.7741 151.39 50.7327 151.601 50.7327C151.811 50.7327 152.019 50.7741 152.213 50.8545C152.407 50.935 152.584 51.0529 152.732 51.2015C152.881 51.3501 152.999 51.5266 153.079 51.7208C153.16 51.915 153.201 52.1231 153.201 52.3333C153.201 52.5435 153.16 52.7516 153.079 52.9458C152.999 53.14 152.881 53.3165 152.732 53.4651C152.584 53.6137 152.407 53.7316 152.213 53.8121C152.019 53.8925 151.811 53.9339 151.601 53.9339C151.39 53.9339 151.182 53.8925 150.988 53.8121C150.794 53.7316 150.617 53.6137 150.469 53.4651C150.32 53.3165 150.202 53.14 150.122 52.9458C150.041 52.7516 150 52.5435 150 52.3333ZM166.667 52.3333C166.667 52.1231 166.708 51.915 166.789 51.7208C166.869 51.5266 166.987 51.3501 167.135 51.2015C167.284 51.0529 167.461 50.935 167.655 50.8545C167.849 50.7741 168.057 50.7327 168.267 50.7327C168.477 50.7327 168.686 50.7741 168.88 50.8545C169.074 50.935 169.25 51.0529 169.399 51.2015C169.548 51.3501 169.666 51.5266 169.746 51.7208C169.827 51.915 169.868 52.1231 169.868 52.3333C169.868 52.5435 169.827 52.7516 169.746 52.9458C169.666 53.14 169.548 53.3165 169.399 53.4651C169.25 53.6137 169.074 53.7316 168.88 53.8121C168.686 53.8925 168.477 53.9339 168.267 53.9339C168.057 53.9339 167.849 53.8925 167.655 53.8121C167.461 53.7316 167.284 53.6137 167.135 53.4651C166.987 53.3165 166.869 53.14 166.789 52.9458C166.708 52.7516 166.667 52.5435 166.667 52.3333ZM183.333 52.3333C183.333 52.1231 183.375 51.915 183.455 51.7208C183.536 51.5266 183.654 51.3501 183.802 51.2015C183.951 51.0529 184.127 50.935 184.321 50.8545C184.516 50.7741 184.724 50.7327 184.934 50.7327C185.144 50.7327 185.352 50.7741 185.546 50.8545C185.741 50.935 185.917 51.0529 186.066 51.2015C186.214 51.3501 186.332 51.5266 186.413 51.7208C186.493 51.915 186.535 52.1231 186.535 52.3333C186.535 52.5435 186.493 52.7516 186.413 52.9458C186.332 53.14 186.214 53.3165 186.066 53.4651C185.917 53.6137 185.741 53.7316 185.546 53.8121C185.352 53.8925 185.144 53.9339 184.934 53.9339C184.724 53.9339 184.516 53.8925 184.321 53.8121C184.127 53.7316 183.951 53.6137 183.802 53.4651C183.654 53.3165 183.536 53.14 183.455 52.9458C183.375 52.7516 183.333 52.5435 183.333 52.3333ZM200 52.3333C200 52.1231 200.041 51.915 200.122 51.7208C200.202 51.5266 200.32 51.3501 200.469 51.2015C200.617 51.0529 200.794 50.935 200.988 50.8545C201.182 50.7741 201.39 50.7327 201.601 50.7327C201.811 50.7327 202.019 50.7741 202.213 50.8545C202.407 50.935 202.584 51.0529 202.732 51.2015C202.881 51.3501 202.999 51.5266 203.079 51.7208C203.16 51.915 203.201 52.1231 203.201 52.3333C203.201 52.5435 203.16 52.7516 203.079 52.9458C202.999 53.14 202.881 53.3165 202.732 53.4651C202.584 53.6137 202.407 53.7316 202.213 53.8121C202.019 53.8925 201.811 53.9339 201.601 53.9339C201.39 53.9339 201.182 53.8925 200.988 53.8121C200.794 53.7316 200.617 53.6137 200.469 53.4651C200.32 53.3165 200.202 53.14 200.122 52.9458C200.041 52.7516 200 52.5435 200 52.3333ZM-1.52588e-05 69C-1.54514e-05 68.7898 0.0414028 68.5816 0.121841 68.3874C0.20228 68.1932 0.320164 68.0168 0.468796 67.8682C0.617427 67.7195 0.793887 67.6016 0.988083 67.5212C1.18228 67.4407 1.39042 67.3993 1.60062 67.3993C1.81081 67.3993 2.01895 67.4407 2.21315 67.5212C2.40735 67.6016 2.58381 67.7195 2.73244 67.8682C2.88107 68.0168 2.99895 68.1932 3.07939 68.3874C3.15983 68.5816 3.20125 68.7898 3.20125 69C3.20125 69.2102 3.15983 69.4183 3.07939 69.6125C2.99895 69.8067 2.88107 69.9831 2.73244 70.1318C2.58381 70.2804 2.40735 70.3983 2.21315 70.4787C2.01895 70.5592 1.81081 70.6006 1.60062 70.6006C1.39042 70.6006 1.18228 70.5592 0.988083 70.4787C0.793887 70.3983 0.617427 70.2804 0.468796 70.1318C0.320164 69.9831 0.20228 69.8067 0.121841 69.6125C0.0414028 69.4183 -1.54514e-05 69.2102 -1.52588e-05 69ZM16.6667 69C16.6667 68.7898 16.7081 68.5816 16.7885 68.3874C16.8689 68.1932 16.9868 68.0168 17.1355 67.8682C17.2841 67.7195 17.4606 67.6016 17.6548 67.5212C17.849 67.4407 18.0571 67.3993 18.2673 67.3993C18.4775 67.3993 18.6856 67.4407 18.8798 67.5212C19.074 67.6016 19.2505 67.7195 19.3991 67.8682C19.5477 68.0168 19.6656 68.1932 19.7461 68.3874C19.8265 68.5816 19.8679 68.7898 19.8679 69C19.8679 69.2102 19.8265 69.4183 19.7461 69.6125C19.6656 69.8067 19.5477 69.9831 19.3991 70.1318C19.2505 70.2804 19.074 70.3983 18.8798 70.4787C18.6856 70.5592 18.4775 70.6006 18.2673 70.6006C18.0571 70.6006 17.849 70.5592 17.6548 70.4787C17.4606 70.3983 17.2841 70.2804 17.1355 70.1318C16.9868 69.9831 16.8689 69.8067 16.7885 69.6125C16.7081 69.4183 16.6667 69.2102 16.6667 69ZM33.3333 69C33.3333 68.7898 33.3747 68.5816 33.4552 68.3874C33.5356 68.1932 33.6535 68.0168 33.8022 67.8682C33.9508 67.7195 34.1272 67.6016 34.3214 67.5212C34.5156 67.4407 34.7238 67.3993 34.934 67.3993C35.1442 67.3993 35.3523 67.4407 35.5465 67.5212C35.7407 67.6016 35.9171 67.7195 36.0658 67.8682C36.2144 68.0168 36.3323 68.1932 36.4127 68.3874C36.4932 68.5816 36.5346 68.7898 36.5346 69C36.5346 69.2102 36.4932 69.4183 36.4127 69.6125C36.3323 69.8067 36.2144 69.9831 36.0658 70.1318C35.9171 70.2804 35.7407 70.3983 35.5465 70.4787C35.3523 70.5592 35.1442 70.6006 34.934 70.6006C34.7238 70.6006 34.5156 70.5592 34.3214 70.4787C34.1272 70.3983 33.9508 70.2804 33.8022 70.1318C33.6535 69.9831 33.5356 69.8067 33.4552 69.6125C33.3747 69.4183 33.3333 69.2102 33.3333 69ZM50 69C50 68.7898 50.0414 68.5816 50.1218 68.3874C50.2023 68.1932 50.3202 68.0168 50.4688 67.8682C50.6175 67.7195 50.7939 67.6016 50.9881 67.5212C51.1823 67.4407 51.3904 67.3993 51.6006 67.3993C51.8108 67.3993 52.019 67.4407 52.2132 67.5212C52.4073 67.6016 52.5838 67.7195 52.7324 67.8682C52.8811 68.0168 52.999 68.1932 53.0794 68.3874C53.1598 68.5816 53.2012 68.7898 53.2012 69C53.2012 69.2102 53.1598 69.4183 53.0794 69.6125C52.999 69.8067 52.8811 69.9831 52.7324 70.1318C52.5838 70.2804 52.4073 70.3983 52.2132 70.4787C52.019 70.5592 51.8108 70.6006 51.6006 70.6006C51.3904 70.6006 51.1823 70.5592 50.9881 70.4787C50.7939 70.3983 50.6175 70.2804 50.4688 70.1318C50.3202 69.9831 50.2023 69.8067 50.1218 69.6125C50.0414 69.4183 50 69.2102 50 69ZM66.6667 69C66.6667 68.7898 66.7081 68.5816 66.7885 68.3874C66.869 68.1932 66.9869 68.0168 67.1355 67.8682C67.2841 67.7195 67.4606 67.6016 67.6548 67.5212C67.849 67.4407 68.0571 67.3993 68.2673 67.3993C68.4775 67.3993 68.6856 67.4407 68.8798 67.5212C69.074 67.6016 69.2505 67.7195 69.3991 67.8682C69.5477 68.0168 69.6656 68.1932 69.7461 68.3874C69.8265 68.5816 69.8679 68.7898 69.8679 69C69.8679 69.2102 69.8265 69.4183 69.7461 69.6125C69.6656 69.8067 69.5477 69.9831 69.3991 70.1318C69.2505 70.2804 69.074 70.3983 68.8798 70.4787C68.6856 70.5592 68.4775 70.6006 68.2673 70.6006C68.0571 70.6006 67.849 70.5592 67.6548 70.4787C67.4606 70.3983 67.2841 70.2804 67.1355 70.1318C66.9869 69.9831 66.869 69.8067 66.7885 69.6125C66.7081 69.4183 66.6667 69.2102 66.6667 69ZM83.3333 69C83.3333 68.7898 83.3747 68.5816 83.4552 68.3874C83.5356 68.1932 83.6535 68.0168 83.8022 67.8682C83.9508 67.7195 84.1272 67.6016 84.3214 67.5212C84.5156 67.4407 84.7238 67.3993 84.934 67.3993C85.1442 67.3993 85.3523 67.4407 85.5465 67.5212C85.7407 67.6016 85.9171 67.7195 86.0658 67.8682C86.2144 68.0168 86.3323 68.1932 86.4127 68.3874C86.4932 68.5816 86.5346 68.7898 86.5346 69C86.5346 69.2102 86.4932 69.4183 86.4127 69.6125C86.3323 69.8067 86.2144 69.9831 86.0658 70.1318C85.9171 70.2804 85.7407 70.3983 85.5465 70.4787C85.3523 70.5592 85.1442 70.6006 84.934 70.6006C84.7238 70.6006 84.5156 70.5592 84.3214 70.4787C84.1272 70.3983 83.9508 70.2804 83.8022 70.1318C83.6535 69.9831 83.5356 69.8067 83.4552 69.6125C83.3747 69.4183 83.3333 69.2102 83.3333 69ZM100 69C100 68.7898 100.041 68.5816 100.122 68.3874C100.202 68.1932 100.32 68.0168 100.469 67.8682C100.617 67.7195 100.794 67.6016 100.988 67.5212C101.182 67.4407 101.39 67.3993 101.601 67.3993C101.811 67.3993 102.019 67.4407 102.213 67.5212C102.407 67.6016 102.584 67.7195 102.732 67.8682C102.881 68.0168 102.999 68.1932 103.079 68.3874C103.16 68.5816 103.201 68.7898 103.201 69C103.201 69.2102 103.16 69.4183 103.079 69.6125C102.999 69.8067 102.881 69.9831 102.732 70.1318C102.584 70.2804 102.407 70.3983 102.213 70.4787C102.019 70.5592 101.811 70.6006 101.601 70.6006C101.39 70.6006 101.182 70.5592 100.988 70.4787C100.794 70.3983 100.617 70.2804 100.469 70.1318C100.32 69.9831 100.202 69.8067 100.122 69.6125C100.041 69.4183 100 69.2102 100 69ZM116.667 69C116.667 68.7898 116.708 68.5816 116.789 68.3874C116.869 68.1932 116.987 68.0168 117.135 67.8682C117.284 67.7195 117.461 67.6016 117.655 67.5212C117.849 67.4407 118.057 67.3993 118.267 67.3993C118.477 67.3993 118.686 67.4407 118.88 67.5212C119.074 67.6016 119.25 67.7195 119.399 67.8682C119.548 68.0168 119.666 68.1932 119.746 68.3874C119.827 68.5816 119.868 68.7898 119.868 69C119.868 69.2102 119.827 69.4183 119.746 69.6125C119.666 69.8067 119.548 69.9831 119.399 70.1318C119.25 70.2804 119.074 70.3983 118.88 70.4787C118.686 70.5592 118.477 70.6006 118.267 70.6006C118.057 70.6006 117.849 70.5592 117.655 70.4787C117.461 70.3983 117.284 70.2804 117.135 70.1318C116.987 69.9831 116.869 69.8067 116.789 69.6125C116.708 69.4183 116.667 69.2102 116.667 69ZM133.333 69C133.333 68.7898 133.375 68.5816 133.455 68.3874C133.536 68.1932 133.654 68.0168 133.802 67.8682C133.951 67.7195 134.127 67.6016 134.321 67.5212C134.516 67.4407 134.724 67.3993 134.934 67.3993C135.144 67.3993 135.352 67.4407 135.546 67.5212C135.741 67.6016 135.917 67.7195 136.066 67.8682C136.214 68.0168 136.332 68.1932 136.413 68.3874C136.493 68.5816 136.535 68.7898 136.535 69C136.535 69.2102 136.493 69.4183 136.413 69.6125C136.332 69.8067 136.214 69.9831 136.066 70.1318C135.917 70.2804 135.741 70.3983 135.546 70.4787C135.352 70.5592 135.144 70.6006 134.934 70.6006C134.724 70.6006 134.516 70.5592 134.321 70.4787C134.127 70.3983 133.951 70.2804 133.802 70.1318C133.654 69.9831 133.536 69.8067 133.455 69.6125C133.375 69.4183 133.333 69.2102 133.333 69ZM150 69C150 68.7898 150.041 68.5816 150.122 68.3874C150.202 68.1932 150.32 68.0168 150.469 67.8682C150.617 67.7195 150.794 67.6016 150.988 67.5212C151.182 67.4407 151.39 67.3993 151.601 67.3993C151.811 67.3993 152.019 67.4407 152.213 67.5212C152.407 67.6016 152.584 67.7195 152.732 67.8682C152.881 68.0168 152.999 68.1932 153.079 68.3874C153.16 68.5816 153.201 68.7898 153.201 69C153.201 69.2102 153.16 69.4183 153.079 69.6125C152.999 69.8067 152.881 69.9831 152.732 70.1318C152.584 70.2804 152.407 70.3983 152.213 70.4787C152.019 70.5592 151.811 70.6006 151.601 70.6006C151.39 70.6006 151.182 70.5592 150.988 70.4787C150.794 70.3983 150.617 70.2804 150.469 70.1318C150.32 69.9831 150.202 69.8067 150.122 69.6125C150.041 69.4183 150 69.2102 150 69ZM166.667 69C166.667 68.7898 166.708 68.5816 166.789 68.3874C166.869 68.1932 166.987 68.0168 167.135 67.8682C167.284 67.7195 167.461 67.6016 167.655 67.5212C167.849 67.4407 168.057 67.3993 168.267 67.3993C168.477 67.3993 168.686 67.4407 168.88 67.5212C169.074 67.6016 169.25 67.7195 169.399 67.8682C169.548 68.0168 169.666 68.1932 169.746 68.3874C169.827 68.5816 169.868 68.7898 169.868 69C169.868 69.2102 169.827 69.4183 169.746 69.6125C169.666 69.8067 169.548 69.9831 169.399 70.1318C169.25 70.2804 169.074 70.3983 168.88 70.4787C168.686 70.5592 168.477 70.6006 168.267 70.6006C168.057 70.6006 167.849 70.5592 167.655 70.4787C167.461 70.3983 167.284 70.2804 167.135 70.1318C166.987 69.9831 166.869 69.8067 166.789 69.6125C166.708 69.4183 166.667 69.2102 166.667 69ZM183.333 69C183.333 68.7898 183.375 68.5816 183.455 68.3874C183.536 68.1932 183.654 68.0168 183.802 67.8682C183.951 67.7195 184.127 67.6016 184.321 67.5212C184.516 67.4407 184.724 67.3993 184.934 67.3993C185.144 67.3993 185.352 67.4407 185.546 67.5212C185.741 67.6016 185.917 67.7195 186.066 67.8682C186.214 68.0168 186.332 68.1932 186.413 68.3874C186.493 68.5816 186.535 68.7898 186.535 69C186.535 69.2102 186.493 69.4183 186.413 69.6125C186.332 69.8067 186.214 69.9831 186.066 70.1318C185.917 70.2804 185.741 70.3983 185.546 70.4787C185.352 70.5592 185.144 70.6006 184.934 70.6006C184.724 70.6006 184.516 70.5592 184.321 70.4787C184.127 70.3983 183.951 70.2804 183.802 70.1318C183.654 69.9831 183.536 69.8067 183.455 69.6125C183.375 69.4183 183.333 69.2102 183.333 69ZM200 69C200 68.7898 200.041 68.5816 200.122 68.3874C200.202 68.1932 200.32 68.0168 200.469 67.8682C200.617 67.7195 200.794 67.6016 200.988 67.5212C201.182 67.4407 201.39 67.3993 201.601 67.3993C201.811 67.3993 202.019 67.4407 202.213 67.5212C202.407 67.6016 202.584 67.7195 202.732 67.8682C202.881 68.0168 202.999 68.1932 203.079 68.3874C203.16 68.5816 203.201 68.7898 203.201 69C203.201 69.2102 203.16 69.4183 203.079 69.6125C202.999 69.8067 202.881 69.9831 202.732 70.1318C202.584 70.2804 202.407 70.3983 202.213 70.4787C202.019 70.5592 201.811 70.6006 201.601 70.6006C201.39 70.6006 201.182 70.5592 200.988 70.4787C200.794 70.3983 200.617 70.2804 200.469 70.1318C200.32 69.9831 200.202 69.8067 200.122 69.6125C200.041 69.4183 200 69.2102 200 69ZM-1.52588e-05 85.6666C-1.54514e-05 85.4564 0.0414028 85.2483 0.121841 85.0541C0.20228 84.8599 0.320164 84.6835 0.468796 84.5348C0.617427 84.3862 0.793887 84.2683 0.988083 84.1878C1.18228 84.1074 1.39042 84.066 1.60062 84.066C1.81081 84.066 2.01895 84.1074 2.21315 84.1878C2.40735 84.2683 2.58381 84.3862 2.73244 84.5348C2.88107 84.6835 2.99895 84.8599 3.07939 85.0541C3.15983 85.2483 3.20125 85.4564 3.20125 85.6666C3.20125 85.8768 3.15983 86.085 3.07939 86.2792C2.99895 86.4734 2.88107 86.6498 2.73244 86.7984C2.58381 86.9471 2.40735 87.065 2.21315 87.1454C2.01895 87.2258 1.81081 87.2672 1.60062 87.2672C1.39042 87.2672 1.18228 87.2258 0.988083 87.1454C0.793887 87.065 0.617427 86.9471 0.468796 86.7984C0.320164 86.6498 0.20228 86.4734 0.121841 86.2792C0.0414028 86.085 -1.54514e-05 85.8768 -1.52588e-05 85.6666ZM16.6667 85.6666C16.6667 85.4564 16.7081 85.2483 16.7885 85.0541C16.8689 84.8599 16.9868 84.6835 17.1355 84.5348C17.2841 84.3862 17.4606 84.2683 17.6548 84.1878C17.849 84.1074 18.0571 84.066 18.2673 84.066C18.4775 84.066 18.6856 84.1074 18.8798 84.1878C19.074 84.2683 19.2505 84.3862 19.3991 84.5348C19.5477 84.6835 19.6656 84.8599 19.7461 85.0541C19.8265 85.2483 19.8679 85.4564 19.8679 85.6666C19.8679 85.8768 19.8265 86.085 19.7461 86.2792C19.6656 86.4734 19.5477 86.6498 19.3991 86.7984C19.2505 86.9471 19.074 87.065 18.8798 87.1454C18.6856 87.2258 18.4775 87.2672 18.2673 87.2672C18.0571 87.2672 17.849 87.2258 17.6548 87.1454C17.4606 87.065 17.2841 86.9471 17.1355 86.7984C16.9868 86.6498 16.8689 86.4734 16.7885 86.2792C16.7081 86.085 16.6667 85.8768 16.6667 85.6666ZM33.3333 85.6666C33.3333 85.4564 33.3747 85.2483 33.4552 85.0541C33.5356 84.8599 33.6535 84.6835 33.8022 84.5348C33.9508 84.3862 34.1272 84.2683 34.3214 84.1878C34.5156 84.1074 34.7238 84.066 34.934 84.066C35.1442 84.066 35.3523 84.1074 35.5465 84.1878C35.7407 84.2683 35.9171 84.3862 36.0658 84.5348C36.2144 84.6835 36.3323 84.8599 36.4127 85.0541C36.4932 85.2483 36.5346 85.4564 36.5346 85.6666C36.5346 85.8768 36.4932 86.085 36.4127 86.2792C36.3323 86.4734 36.2144 86.6498 36.0658 86.7984C35.9171 86.9471 35.7407 87.065 35.5465 87.1454C35.3523 87.2258 35.1442 87.2672 34.934 87.2672C34.7238 87.2672 34.5156 87.2258 34.3214 87.1454C34.1272 87.065 33.9508 86.9471 33.8022 86.7984C33.6535 86.6498 33.5356 86.4734 33.4552 86.2792C33.3747 86.085 33.3333 85.8768 33.3333 85.6666ZM50 85.6666C50 85.4564 50.0414 85.2483 50.1218 85.0541C50.2023 84.8599 50.3202 84.6835 50.4688 84.5348C50.6175 84.3862 50.7939 84.2683 50.9881 84.1878C51.1823 84.1074 51.3904 84.066 51.6006 84.066C51.8108 84.066 52.019 84.1074 52.2132 84.1878C52.4073 84.2683 52.5838 84.3862 52.7324 84.5348C52.8811 84.6835 52.999 84.8599 53.0794 85.0541C53.1598 85.2483 53.2012 85.4564 53.2012 85.6666C53.2012 85.8768 53.1598 86.085 53.0794 86.2792C52.999 86.4734 52.8811 86.6498 52.7324 86.7984C52.5838 86.9471 52.4073 87.065 52.2132 87.1454C52.019 87.2258 51.8108 87.2672 51.6006 87.2672C51.3904 87.2672 51.1823 87.2258 50.9881 87.1454C50.7939 87.065 50.6175 86.9471 50.4688 86.7984C50.3202 86.6498 50.2023 86.4734 50.1218 86.2792C50.0414 86.085 50 85.8768 50 85.6666ZM66.6667 85.6666C66.6667 85.4564 66.7081 85.2483 66.7885 85.0541C66.869 84.8599 66.9869 84.6835 67.1355 84.5348C67.2841 84.3862 67.4606 84.2683 67.6548 84.1878C67.849 84.1074 68.0571 84.066 68.2673 84.066C68.4775 84.066 68.6856 84.1074 68.8798 84.1878C69.074 84.2683 69.2505 84.3862 69.3991 84.5348C69.5477 84.6835 69.6656 84.8599 69.7461 85.0541C69.8265 85.2483 69.8679 85.4564 69.8679 85.6666C69.8679 85.8768 69.8265 86.085 69.7461 86.2792C69.6656 86.4734 69.5477 86.6498 69.3991 86.7984C69.2505 86.9471 69.074 87.065 68.8798 87.1454C68.6856 87.2258 68.4775 87.2672 68.2673 87.2672C68.0571 87.2672 67.849 87.2258 67.6548 87.1454C67.4606 87.065 67.2841 86.9471 67.1355 86.7984C66.9869 86.6498 66.869 86.4734 66.7885 86.2792C66.7081 86.085 66.6667 85.8768 66.6667 85.6666ZM83.3333 85.6666C83.3333 85.4564 83.3747 85.2483 83.4552 85.0541C83.5356 84.8599 83.6535 84.6835 83.8022 84.5348C83.9508 84.3862 84.1272 84.2683 84.3214 84.1878C84.5156 84.1074 84.7238 84.066 84.934 84.066C85.1442 84.066 85.3523 84.1074 85.5465 84.1878C85.7407 84.2683 85.9171 84.3862 86.0658 84.5348C86.2144 84.6835 86.3323 84.8599 86.4127 85.0541C86.4932 85.2483 86.5346 85.4564 86.5346 85.6666C86.5346 85.8768 86.4932 86.085 86.4127 86.2792C86.3323 86.4734 86.2144 86.6498 86.0658 86.7984C85.9171 86.9471 85.7407 87.065 85.5465 87.1454C85.3523 87.2258 85.1442 87.2672 84.934 87.2672C84.7238 87.2672 84.5156 87.2258 84.3214 87.1454C84.1272 87.065 83.9508 86.9471 83.8022 86.7984C83.6535 86.6498 83.5356 86.4734 83.4552 86.2792C83.3747 86.085 83.3333 85.8768 83.3333 85.6666ZM100 85.6666C100 85.4564 100.041 85.2483 100.122 85.0541C100.202 84.8599 100.32 84.6835 100.469 84.5348C100.617 84.3862 100.794 84.2683 100.988 84.1878C101.182 84.1074 101.39 84.066 101.601 84.066C101.811 84.066 102.019 84.1074 102.213 84.1878C102.407 84.2683 102.584 84.3862 102.732 84.5348C102.881 84.6835 102.999 84.8599 103.079 85.0541C103.16 85.2483 103.201 85.4564 103.201 85.6666C103.201 85.8768 103.16 86.085 103.079 86.2792C102.999 86.4734 102.881 86.6498 102.732 86.7984C102.584 86.9471 102.407 87.065 102.213 87.1454C102.019 87.2258 101.811 87.2672 101.601 87.2672C101.39 87.2672 101.182 87.2258 100.988 87.1454C100.794 87.065 100.617 86.9471 100.469 86.7984C100.32 86.6498 100.202 86.4734 100.122 86.2792C100.041 86.085 100 85.8768 100 85.6666ZM116.667 85.6666C116.667 85.4564 116.708 85.2483 116.789 85.0541C116.869 84.8599 116.987 84.6835 117.135 84.5348C117.284 84.3862 117.461 84.2683 117.655 84.1878C117.849 84.1074 118.057 84.066 118.267 84.066C118.477 84.066 118.686 84.1074 118.88 84.1878C119.074 84.2683 119.25 84.3862 119.399 84.5348C119.548 84.6835 119.666 84.8599 119.746 85.0541C119.827 85.2483 119.868 85.4564 119.868 85.6666C119.868 85.8768 119.827 86.085 119.746 86.2792C119.666 86.4734 119.548 86.6498 119.399 86.7984C119.25 86.9471 119.074 87.065 118.88 87.1454C118.686 87.2258 118.477 87.2672 118.267 87.2672C118.057 87.2672 117.849 87.2258 117.655 87.1454C117.461 87.065 117.284 86.9471 117.135 86.7984C116.987 86.6498 116.869 86.4734 116.789 86.2792C116.708 86.085 116.667 85.8768 116.667 85.6666ZM133.333 85.6666C133.333 85.4564 133.375 85.2483 133.455 85.0541C133.536 84.8599 133.654 84.6835 133.802 84.5348C133.951 84.3862 134.127 84.2683 134.321 84.1878C134.516 84.1074 134.724 84.066 134.934 84.066C135.144 84.066 135.352 84.1074 135.546 84.1878C135.741 84.2683 135.917 84.3862 136.066 84.5348C136.214 84.6835 136.332 84.8599 136.413 85.0541C136.493 85.2483 136.535 85.4564 136.535 85.6666C136.535 85.8768 136.493 86.085 136.413 86.2792C136.332 86.4734 136.214 86.6498 136.066 86.7984C135.917 86.9471 135.741 87.065 135.546 87.1454C135.352 87.2258 135.144 87.2672 134.934 87.2672C134.724 87.2672 134.516 87.2258 134.321 87.1454C134.127 87.065 133.951 86.9471 133.802 86.7984C133.654 86.6498 133.536 86.4734 133.455 86.2792C133.375 86.085 133.333 85.8768 133.333 85.6666ZM150 85.6666C150 85.4564 150.041 85.2483 150.122 85.0541C150.202 84.8599 150.32 84.6835 150.469 84.5348C150.617 84.3862 150.794 84.2683 150.988 84.1878C151.182 84.1074 151.39 84.066 151.601 84.066C151.811 84.066 152.019 84.1074 152.213 84.1878C152.407 84.2683 152.584 84.3862 152.732 84.5348C152.881 84.6835 152.999 84.8599 153.079 85.0541C153.16 85.2483 153.201 85.4564 153.201 85.6666C153.201 85.8768 153.16 86.085 153.079 86.2792C152.999 86.4734 152.881 86.6498 152.732 86.7984C152.584 86.9471 152.407 87.065 152.213 87.1454C152.019 87.2258 151.811 87.2672 151.601 87.2672C151.39 87.2672 151.182 87.2258 150.988 87.1454C150.794 87.065 150.617 86.9471 150.469 86.7984C150.32 86.6498 150.202 86.4734 150.122 86.2792C150.041 86.085 150 85.8768 150 85.6666ZM166.667 85.6666C166.667 85.4564 166.708 85.2483 166.789 85.0541C166.869 84.8599 166.987 84.6835 167.135 84.5348C167.284 84.3862 167.461 84.2683 167.655 84.1878C167.849 84.1074 168.057 84.066 168.267 84.066C168.477 84.066 168.686 84.1074 168.88 84.1878C169.074 84.2683 169.25 84.3862 169.399 84.5348C169.548 84.6835 169.666 84.8599 169.746 85.0541C169.827 85.2483 169.868 85.4564 169.868 85.6666C169.868 85.8768 169.827 86.085 169.746 86.2792C169.666 86.4734 169.548 86.6498 169.399 86.7984C169.25 86.9471 169.074 87.065 168.88 87.1454C168.686 87.2258 168.477 87.2672 168.267 87.2672C168.057 87.2672 167.849 87.2258 167.655 87.1454C167.461 87.065 167.284 86.9471 167.135 86.7984C166.987 86.6498 166.869 86.4734 166.789 86.2792C166.708 86.085 166.667 85.8768 166.667 85.6666ZM183.333 85.6666C183.333 85.4564 183.375 85.2483 183.455 85.0541C183.536 84.8599 183.654 84.6835 183.802 84.5348C183.951 84.3862 184.127 84.2683 184.321 84.1878C184.516 84.1074 184.724 84.066 184.934 84.066C185.144 84.066 185.352 84.1074 185.546 84.1878C185.741 84.2683 185.917 84.3862 186.066 84.5348C186.214 84.6835 186.332 84.8599 186.413 85.0541C186.493 85.2483 186.535 85.4564 186.535 85.6666C186.535 85.8768 186.493 86.085 186.413 86.2792C186.332 86.4734 186.214 86.6498 186.066 86.7984C185.917 86.9471 185.741 87.065 185.546 87.1454C185.352 87.2258 185.144 87.2672 184.934 87.2672C184.724 87.2672 184.516 87.2258 184.321 87.1454C184.127 87.065 183.951 86.9471 183.802 86.7984C183.654 86.6498 183.536 86.4734 183.455 86.2792C183.375 86.085 183.333 85.8768 183.333 85.6666ZM200 85.6666C200 85.4564 200.041 85.2483 200.122 85.0541C200.202 84.8599 200.32 84.6835 200.469 84.5348C200.617 84.3862 200.794 84.2683 200.988 84.1878C201.182 84.1074 201.39 84.066 201.601 84.066C201.811 84.066 202.019 84.1074 202.213 84.1878C202.407 84.2683 202.584 84.3862 202.732 84.5348C202.881 84.6835 202.999 84.8599 203.079 85.0541C203.16 85.2483 203.201 85.4564 203.201 85.6666C203.201 85.8768 203.16 86.085 203.079 86.2792C202.999 86.4734 202.881 86.6498 202.732 86.7984C202.584 86.9471 202.407 87.065 202.213 87.1454C202.019 87.2258 201.811 87.2672 201.601 87.2672C201.39 87.2672 201.182 87.2258 200.988 87.1454C200.794 87.065 200.617 86.9471 200.469 86.7984C200.32 86.6498 200.202 86.4734 200.122 86.2792C200.041 86.085 200 85.8768 200 85.6666ZM-1.52588e-05 102.333C-1.54514e-05 102.123 0.0414028 101.915 0.121841 101.721C0.20228 101.527 0.320164 101.35 0.468796 101.201C0.617427 101.053 0.793887 100.935 0.988083 100.855C1.18228 100.774 1.39042 100.733 1.60062 100.733C1.81081 100.733 2.01895 100.774 2.21315 100.855C2.40735 100.935 2.58381 101.053 2.73244 101.201C2.88107 101.35 2.99895 101.527 3.07939 101.721C3.15983 101.915 3.20125 102.123 3.20125 102.333C3.20125 102.543 3.15983 102.752 3.07939 102.946C2.99895 103.14 2.88107 103.316 2.73244 103.465C2.58381 103.614 2.40735 103.732 2.21315 103.812C2.01895 103.893 1.81081 103.934 1.60062 103.934C1.39042 103.934 1.18228 103.893 0.988083 103.812C0.793887 103.732 0.617427 103.614 0.468796 103.465C0.320164 103.316 0.20228 103.14 0.121841 102.946C0.0414028 102.752 -1.54514e-05 102.543 -1.52588e-05 102.333ZM16.6667 102.333C16.6667 102.123 16.7081 101.915 16.7885 101.721C16.8689 101.527 16.9868 101.35 17.1355 101.201C17.2841 101.053 17.4606 100.935 17.6548 100.855C17.849 100.774 18.0571 100.733 18.2673 100.733C18.4775 100.733 18.6856 100.774 18.8798 100.855C19.074 100.935 19.2505 101.053 19.3991 101.201C19.5477 101.35 19.6656 101.527 19.7461 101.721C19.8265 101.915 19.8679 102.123 19.8679 102.333C19.8679 102.543 19.8265 102.752 19.7461 102.946C19.6656 103.14 19.5477 103.316 19.3991 103.465C19.2505 103.614 19.074 103.732 18.8798 103.812C18.6856 103.893 18.4775 103.934 18.2673 103.934C18.0571 103.934 17.849 103.893 17.6548 103.812C17.4606 103.732 17.2841 103.614 17.1355 103.465C16.9868 103.316 16.8689 103.14 16.7885 102.946C16.7081 102.752 16.6667 102.543 16.6667 102.333ZM33.3333 102.333C33.3333 102.123 33.3747 101.915 33.4552 101.721C33.5356 101.527 33.6535 101.35 33.8022 101.201C33.9508 101.053 34.1272 100.935 34.3214 100.855C34.5156 100.774 34.7238 100.733 34.934 100.733C35.1442 100.733 35.3523 100.774 35.5465 100.855C35.7407 100.935 35.9171 101.053 36.0658 101.201C36.2144 101.35 36.3323 101.527 36.4127 101.721C36.4932 101.915 36.5346 102.123 36.5346 102.333C36.5346 102.543 36.4932 102.752 36.4127 102.946C36.3323 103.14 36.2144 103.316 36.0658 103.465C35.9171 103.614 35.7407 103.732 35.5465 103.812C35.3523 103.893 35.1442 103.934 34.934 103.934C34.7238 103.934 34.5156 103.893 34.3214 103.812C34.1272 103.732 33.9508 103.614 33.8022 103.465C33.6535 103.316 33.5356 103.14 33.4552 102.946C33.3747 102.752 33.3333 102.543 33.3333 102.333ZM50 102.333C50 102.123 50.0414 101.915 50.1218 101.721C50.2023 101.527 50.3202 101.35 50.4688 101.201C50.6175 101.053 50.7939 100.935 50.9881 100.855C51.1823 100.774 51.3904 100.733 51.6006 100.733C51.8108 100.733 52.019 100.774 52.2132 100.855C52.4073 100.935 52.5838 101.053 52.7324 101.201C52.8811 101.35 52.999 101.527 53.0794 101.721C53.1598 101.915 53.2012 102.123 53.2012 102.333C53.2012 102.543 53.1598 102.752 53.0794 102.946C52.999 103.14 52.8811 103.316 52.7324 103.465C52.5838 103.614 52.4073 103.732 52.2132 103.812C52.019 103.893 51.8108 103.934 51.6006 103.934C51.3904 103.934 51.1823 103.893 50.9881 103.812C50.7939 103.732 50.6175 103.614 50.4688 103.465C50.3202 103.316 50.2023 103.14 50.1218 102.946C50.0414 102.752 50 102.543 50 102.333ZM66.6667 102.333C66.6667 102.123 66.7081 101.915 66.7885 101.721C66.869 101.527 66.9869 101.35 67.1355 101.201C67.2841 101.053 67.4606 100.935 67.6548 100.855C67.849 100.774 68.0571 100.733 68.2673 100.733C68.4775 100.733 68.6856 100.774 68.8798 100.855C69.074 100.935 69.2505 101.053 69.3991 101.201C69.5477 101.35 69.6656 101.527 69.7461 101.721C69.8265 101.915 69.8679 102.123 69.8679 102.333C69.8679 102.543 69.8265 102.752 69.7461 102.946C69.6656 103.14 69.5477 103.316 69.3991 103.465C69.2505 103.614 69.074 103.732 68.8798 103.812C68.6856 103.893 68.4775 103.934 68.2673 103.934C68.0571 103.934 67.849 103.893 67.6548 103.812C67.4606 103.732 67.2841 103.614 67.1355 103.465C66.9869 103.316 66.869 103.14 66.7885 102.946C66.7081 102.752 66.6667 102.543 66.6667 102.333ZM83.3333 102.333C83.3333 102.123 83.3747 101.915 83.4552 101.721C83.5356 101.527 83.6535 101.35 83.8022 101.201C83.9508 101.053 84.1272 100.935 84.3214 100.855C84.5156 100.774 84.7238 100.733 84.934 100.733C85.1442 100.733 85.3523 100.774 85.5465 100.855C85.7407 100.935 85.9171 101.053 86.0658 101.201C86.2144 101.35 86.3323 101.527 86.4127 101.721C86.4932 101.915 86.5346 102.123 86.5346 102.333C86.5346 102.543 86.4932 102.752 86.4127 102.946C86.3323 103.14 86.2144 103.316 86.0658 103.465C85.9171 103.614 85.7407 103.732 85.5465 103.812C85.3523 103.893 85.1442 103.934 84.934 103.934C84.7238 103.934 84.5156 103.893 84.3214 103.812C84.1272 103.732 83.9508 103.614 83.8022 103.465C83.6535 103.316 83.5356 103.14 83.4552 102.946C83.3747 102.752 83.3333 102.543 83.3333 102.333ZM100 102.333C100 102.123 100.041 101.915 100.122 101.721C100.202 101.527 100.32 101.35 100.469 101.201C100.617 101.053 100.794 100.935 100.988 100.855C101.182 100.774 101.39 100.733 101.601 100.733C101.811 100.733 102.019 100.774 102.213 100.855C102.407 100.935 102.584 101.053 102.732 101.201C102.881 101.35 102.999 101.527 103.079 101.721C103.16 101.915 103.201 102.123 103.201 102.333C103.201 102.543 103.16 102.752 103.079 102.946C102.999 103.14 102.881 103.316 102.732 103.465C102.584 103.614 102.407 103.732 102.213 103.812C102.019 103.893 101.811 103.934 101.601 103.934C101.39 103.934 101.182 103.893 100.988 103.812C100.794 103.732 100.617 103.614 100.469 103.465C100.32 103.316 100.202 103.14 100.122 102.946C100.041 102.752 100 102.543 100 102.333ZM116.667 102.333C116.667 102.123 116.708 101.915 116.789 101.721C116.869 101.527 116.987 101.35 117.135 101.201C117.284 101.053 117.461 100.935 117.655 100.855C117.849 100.774 118.057 100.733 118.267 100.733C118.477 100.733 118.686 100.774 118.88 100.855C119.074 100.935 119.25 101.053 119.399 101.201C119.548 101.35 119.666 101.527 119.746 101.721C119.827 101.915 119.868 102.123 119.868 102.333C119.868 102.543 119.827 102.752 119.746 102.946C119.666 103.14 119.548 103.316 119.399 103.465C119.25 103.614 119.074 103.732 118.88 103.812C118.686 103.893 118.477 103.934 118.267 103.934C118.057 103.934 117.849 103.893 117.655 103.812C117.461 103.732 117.284 103.614 117.135 103.465C116.987 103.316 116.869 103.14 116.789 102.946C116.708 102.752 116.667 102.543 116.667 102.333ZM133.333 102.333C133.333 102.123 133.375 101.915 133.455 101.721C133.536 101.527 133.654 101.35 133.802 101.201C133.951 101.053 134.127 100.935 134.321 100.855C134.516 100.774 134.724 100.733 134.934 100.733C135.144 100.733 135.352 100.774 135.546 100.855C135.741 100.935 135.917 101.053 136.066 101.201C136.214 101.35 136.332 101.527 136.413 101.721C136.493 101.915 136.535 102.123 136.535 102.333C136.535 102.543 136.493 102.752 136.413 102.946C136.332 103.14 136.214 103.316 136.066 103.465C135.917 103.614 135.741 103.732 135.546 103.812C135.352 103.893 135.144 103.934 134.934 103.934C134.724 103.934 134.516 103.893 134.321 103.812C134.127 103.732 133.951 103.614 133.802 103.465C133.654 103.316 133.536 103.14 133.455 102.946C133.375 102.752 133.333 102.543 133.333 102.333ZM150 102.333C150 102.123 150.041 101.915 150.122 101.721C150.202 101.527 150.32 101.35 150.469 101.201C150.617 101.053 150.794 100.935 150.988 100.855C151.182 100.774 151.39 100.733 151.601 100.733C151.811 100.733 152.019 100.774 152.213 100.855C152.407 100.935 152.584 101.053 152.732 101.201C152.881 101.35 152.999 101.527 153.079 101.721C153.16 101.915 153.201 102.123 153.201 102.333C153.201 102.543 153.16 102.752 153.079 102.946C152.999 103.14 152.881 103.316 152.732 103.465C152.584 103.614 152.407 103.732 152.213 103.812C152.019 103.893 151.811 103.934 151.601 103.934C151.39 103.934 151.182 103.893 150.988 103.812C150.794 103.732 150.617 103.614 150.469 103.465C150.32 103.316 150.202 103.14 150.122 102.946C150.041 102.752 150 102.543 150 102.333ZM166.667 102.333C166.667 102.123 166.708 101.915 166.789 101.721C166.869 101.527 166.987 101.35 167.135 101.201C167.284 101.053 167.461 100.935 167.655 100.855C167.849 100.774 168.057 100.733 168.267 100.733C168.477 100.733 168.686 100.774 168.88 100.855C169.074 100.935 169.25 101.053 169.399 101.201C169.548 101.35 169.666 101.527 169.746 101.721C169.827 101.915 169.868 102.123 169.868 102.333C169.868 102.543 169.827 102.752 169.746 102.946C169.666 103.14 169.548 103.316 169.399 103.465C169.25 103.614 169.074 103.732 168.88 103.812C168.686 103.893 168.477 103.934 168.267 103.934C168.057 103.934 167.849 103.893 167.655 103.812C167.461 103.732 167.284 103.614 167.135 103.465C166.987 103.316 166.869 103.14 166.789 102.946C166.708 102.752 166.667 102.543 166.667 102.333ZM183.333 102.333C183.333 102.123 183.375 101.915 183.455 101.721C183.536 101.527 183.654 101.35 183.802 101.201C183.951 101.053 184.127 100.935 184.321 100.855C184.516 100.774 184.724 100.733 184.934 100.733C185.144 100.733 185.352 100.774 185.546 100.855C185.741 100.935 185.917 101.053 186.066 101.201C186.214 101.35 186.332 101.527 186.413 101.721C186.493 101.915 186.535 102.123 186.535 102.333C186.535 102.543 186.493 102.752 186.413 102.946C186.332 103.14 186.214 103.316 186.066 103.465C185.917 103.614 185.741 103.732 185.546 103.812C185.352 103.893 185.144 103.934 184.934 103.934C184.724 103.934 184.516 103.893 184.321 103.812C184.127 103.732 183.951 103.614 183.802 103.465C183.654 103.316 183.536 103.14 183.455 102.946C183.375 102.752 183.333 102.543 183.333 102.333ZM200 102.333C200 102.123 200.041 101.915 200.122 101.721C200.202 101.527 200.32 101.35 200.469 101.201C200.617 101.053 200.794 100.935 200.988 100.855C201.182 100.774 201.39 100.733 201.601 100.733C201.811 100.733 202.019 100.774 202.213 100.855C202.407 100.935 202.584 101.053 202.732 101.201C202.881 101.35 202.999 101.527 203.079 101.721C203.16 101.915 203.201 102.123 203.201 102.333C203.201 102.543 203.16 102.752 203.079 102.946C202.999 103.14 202.881 103.316 202.732 103.465C202.584 103.614 202.407 103.732 202.213 103.812C202.019 103.893 201.811 103.934 201.601 103.934C201.39 103.934 201.182 103.893 200.988 103.812C200.794 103.732 200.617 103.614 200.469 103.465C200.32 103.316 200.202 103.14 200.122 102.946C200.041 102.752 200 102.543 200 102.333ZM-1.52588e-05 119C-1.54514e-05 118.79 0.0414028 118.582 0.121841 118.387C0.20228 118.193 0.320164 118.017 0.468796 117.868C0.617427 117.72 0.793887 117.602 0.988083 117.521C1.18228 117.441 1.39042 117.399 1.60062 117.399C1.81081 117.399 2.01895 117.441 2.21315 117.521C2.40735 117.602 2.58381 117.72 2.73244 117.868C2.88107 118.017 2.99895 118.193 3.07939 118.387C3.15983 118.582 3.20125 118.79 3.20125 119C3.20125 119.21 3.15983 119.418 3.07939 119.612C2.99895 119.807 2.88107 119.983 2.73244 120.132C2.58381 120.28 2.40735 120.398 2.21315 120.479C2.01895 120.559 1.81081 120.601 1.60062 120.601C1.39042 120.601 1.18228 120.559 0.988083 120.479C0.793887 120.398 0.617427 120.28 0.468796 120.132C0.320164 119.983 0.20228 119.807 0.121841 119.612C0.0414028 119.418 -1.54514e-05 119.21 -1.52588e-05 119ZM16.6667 119C16.6667 118.79 16.7081 118.582 16.7885 118.387C16.8689 118.193 16.9868 118.017 17.1355 117.868C17.2841 117.72 17.4606 117.602 17.6548 117.521C17.849 117.441 18.0571 117.399 18.2673 117.399C18.4775 117.399 18.6856 117.441 18.8798 117.521C19.074 117.602 19.2505 117.72 19.3991 117.868C19.5477 118.017 19.6656 118.193 19.7461 118.387C19.8265 118.582 19.8679 118.79 19.8679 119C19.8679 119.21 19.8265 119.418 19.7461 119.612C19.6656 119.807 19.5477 119.983 19.3991 120.132C19.2505 120.28 19.074 120.398 18.8798 120.479C18.6856 120.559 18.4775 120.601 18.2673 120.601C18.0571 120.601 17.849 120.559 17.6548 120.479C17.4606 120.398 17.2841 120.28 17.1355 120.132C16.9868 119.983 16.8689 119.807 16.7885 119.612C16.7081 119.418 16.6667 119.21 16.6667 119ZM33.3333 119C33.3333 118.79 33.3747 118.582 33.4552 118.387C33.5356 118.193 33.6535 118.017 33.8022 117.868C33.9508 117.72 34.1272 117.602 34.3214 117.521C34.5156 117.441 34.7238 117.399 34.934 117.399C35.1442 117.399 35.3523 117.441 35.5465 117.521C35.7407 117.602 35.9171 117.72 36.0658 117.868C36.2144 118.017 36.3323 118.193 36.4127 118.387C36.4932 118.582 36.5346 118.79 36.5346 119C36.5346 119.21 36.4932 119.418 36.4127 119.612C36.3323 119.807 36.2144 119.983 36.0658 120.132C35.9171 120.28 35.7407 120.398 35.5465 120.479C35.3523 120.559 35.1442 120.601 34.934 120.601C34.7238 120.601 34.5156 120.559 34.3214 120.479C34.1272 120.398 33.9508 120.28 33.8022 120.132C33.6535 119.983 33.5356 119.807 33.4552 119.612C33.3747 119.418 33.3333 119.21 33.3333 119ZM50 119C50 118.79 50.0414 118.582 50.1218 118.387C50.2023 118.193 50.3202 118.017 50.4688 117.868C50.6175 117.72 50.7939 117.602 50.9881 117.521C51.1823 117.441 51.3904 117.399 51.6006 117.399C51.8108 117.399 52.019 117.441 52.2132 117.521C52.4073 117.602 52.5838 117.72 52.7324 117.868C52.8811 118.017 52.999 118.193 53.0794 118.387C53.1598 118.582 53.2012 118.79 53.2012 119C53.2012 119.21 53.1598 119.418 53.0794 119.612C52.999 119.807 52.8811 119.983 52.7324 120.132C52.5838 120.28 52.4073 120.398 52.2132 120.479C52.019 120.559 51.8108 120.601 51.6006 120.601C51.3904 120.601 51.1823 120.559 50.9881 120.479C50.7939 120.398 50.6175 120.28 50.4688 120.132C50.3202 119.983 50.2023 119.807 50.1218 119.612C50.0414 119.418 50 119.21 50 119ZM66.6667 119C66.6667 118.79 66.7081 118.582 66.7885 118.387C66.869 118.193 66.9869 118.017 67.1355 117.868C67.2841 117.72 67.4606 117.602 67.6548 117.521C67.849 117.441 68.0571 117.399 68.2673 117.399C68.4775 117.399 68.6856 117.441 68.8798 117.521C69.074 117.602 69.2505 117.72 69.3991 117.868C69.5477 118.017 69.6656 118.193 69.7461 118.387C69.8265 118.582 69.8679 118.79 69.8679 119C69.8679 119.21 69.8265 119.418 69.7461 119.612C69.6656 119.807 69.5477 119.983 69.3991 120.132C69.2505 120.28 69.074 120.398 68.8798 120.479C68.6856 120.559 68.4775 120.601 68.2673 120.601C68.0571 120.601 67.849 120.559 67.6548 120.479C67.4606 120.398 67.2841 120.28 67.1355 120.132C66.9869 119.983 66.869 119.807 66.7885 119.612C66.7081 119.418 66.6667 119.21 66.6667 119ZM83.3333 119C83.3333 118.79 83.3747 118.582 83.4552 118.387C83.5356 118.193 83.6535 118.017 83.8022 117.868C83.9508 117.72 84.1272 117.602 84.3214 117.521C84.5156 117.441 84.7238 117.399 84.934 117.399C85.1442 117.399 85.3523 117.441 85.5465 117.521C85.7407 117.602 85.9171 117.72 86.0658 117.868C86.2144 118.017 86.3323 118.193 86.4127 118.387C86.4932 118.582 86.5346 118.79 86.5346 119C86.5346 119.21 86.4932 119.418 86.4127 119.612C86.3323 119.807 86.2144 119.983 86.0658 120.132C85.9171 120.28 85.7407 120.398 85.5465 120.479C85.3523 120.559 85.1442 120.601 84.934 120.601C84.7238 120.601 84.5156 120.559 84.3214 120.479C84.1272 120.398 83.9508 120.28 83.8022 120.132C83.6535 119.983 83.5356 119.807 83.4552 119.612C83.3747 119.418 83.3333 119.21 83.3333 119ZM100 119C100 118.79 100.041 118.582 100.122 118.387C100.202 118.193 100.32 118.017 100.469 117.868C100.617 117.72 100.794 117.602 100.988 117.521C101.182 117.441 101.39 117.399 101.601 117.399C101.811 117.399 102.019 117.441 102.213 117.521C102.407 117.602 102.584 117.72 102.732 117.868C102.881 118.017 102.999 118.193 103.079 118.387C103.16 118.582 103.201 118.79 103.201 119C103.201 119.21 103.16 119.418 103.079 119.612C102.999 119.807 102.881 119.983 102.732 120.132C102.584 120.28 102.407 120.398 102.213 120.479C102.019 120.559 101.811 120.601 101.601 120.601C101.39 120.601 101.182 120.559 100.988 120.479C100.794 120.398 100.617 120.28 100.469 120.132C100.32 119.983 100.202 119.807 100.122 119.612C100.041 119.418 100 119.21 100 119ZM116.667 119C116.667 118.79 116.708 118.582 116.789 118.387C116.869 118.193 116.987 118.017 117.135 117.868C117.284 117.72 117.461 117.602 117.655 117.521C117.849 117.441 118.057 117.399 118.267 117.399C118.477 117.399 118.686 117.441 118.88 117.521C119.074 117.602 119.25 117.72 119.399 117.868C119.548 118.017 119.666 118.193 119.746 118.387C119.827 118.582 119.868 118.79 119.868 119C119.868 119.21 119.827 119.418 119.746 119.612C119.666 119.807 119.548 119.983 119.399 120.132C119.25 120.28 119.074 120.398 118.88 120.479C118.686 120.559 118.477 120.601 118.267 120.601C118.057 120.601 117.849 120.559 117.655 120.479C117.461 120.398 117.284 120.28 117.135 120.132C116.987 119.983 116.869 119.807 116.789 119.612C116.708 119.418 116.667 119.21 116.667 119ZM133.333 119C133.333 118.79 133.375 118.582 133.455 118.387C133.536 118.193 133.654 118.017 133.802 117.868C133.951 117.72 134.127 117.602 134.321 117.521C134.516 117.441 134.724 117.399 134.934 117.399C135.144 117.399 135.352 117.441 135.546 117.521C135.741 117.602 135.917 117.72 136.066 117.868C136.214 118.017 136.332 118.193 136.413 118.387C136.493 118.582 136.535 118.79 136.535 119C136.535 119.21 136.493 119.418 136.413 119.612C136.332 119.807 136.214 119.983 136.066 120.132C135.917 120.28 135.741 120.398 135.546 120.479C135.352 120.559 135.144 120.601 134.934 120.601C134.724 120.601 134.516 120.559 134.321 120.479C134.127 120.398 133.951 120.28 133.802 120.132C133.654 119.983 133.536 119.807 133.455 119.612C133.375 119.418 133.333 119.21 133.333 119ZM150 119C150 118.79 150.041 118.582 150.122 118.387C150.202 118.193 150.32 118.017 150.469 117.868C150.617 117.72 150.794 117.602 150.988 117.521C151.182 117.441 151.39 117.399 151.601 117.399C151.811 117.399 152.019 117.441 152.213 117.521C152.407 117.602 152.584 117.72 152.732 117.868C152.881 118.017 152.999 118.193 153.079 118.387C153.16 118.582 153.201 118.79 153.201 119C153.201 119.21 153.16 119.418 153.079 119.612C152.999 119.807 152.881 119.983 152.732 120.132C152.584 120.28 152.407 120.398 152.213 120.479C152.019 120.559 151.811 120.601 151.601 120.601C151.39 120.601 151.182 120.559 150.988 120.479C150.794 120.398 150.617 120.28 150.469 120.132C150.32 119.983 150.202 119.807 150.122 119.612C150.041 119.418 150 119.21 150 119ZM166.667 119C166.667 118.79 166.708 118.582 166.789 118.387C166.869 118.193 166.987 118.017 167.135 117.868C167.284 117.72 167.461 117.602 167.655 117.521C167.849 117.441 168.057 117.399 168.267 117.399C168.477 117.399 168.686 117.441 168.88 117.521C169.074 117.602 169.25 117.72 169.399 117.868C169.548 118.017 169.666 118.193 169.746 118.387C169.827 118.582 169.868 118.79 169.868 119C169.868 119.21 169.827 119.418 169.746 119.612C169.666 119.807 169.548 119.983 169.399 120.132C169.25 120.28 169.074 120.398 168.88 120.479C168.686 120.559 168.477 120.601 168.267 120.601C168.057 120.601 167.849 120.559 167.655 120.479C167.461 120.398 167.284 120.28 167.135 120.132C166.987 119.983 166.869 119.807 166.789 119.612C166.708 119.418 166.667 119.21 166.667 119ZM183.333 119C183.333 118.79 183.375 118.582 183.455 118.387C183.536 118.193 183.654 118.017 183.802 117.868C183.951 117.72 184.127 117.602 184.321 117.521C184.516 117.441 184.724 117.399 184.934 117.399C185.144 117.399 185.352 117.441 185.546 117.521C185.741 117.602 185.917 117.72 186.066 117.868C186.214 118.017 186.332 118.193 186.413 118.387C186.493 118.582 186.535 118.79 186.535 119C186.535 119.21 186.493 119.418 186.413 119.612C186.332 119.807 186.214 119.983 186.066 120.132C185.917 120.28 185.741 120.398 185.546 120.479C185.352 120.559 185.144 120.601 184.934 120.601C184.724 120.601 184.516 120.559 184.321 120.479C184.127 120.398 183.951 120.28 183.802 120.132C183.654 119.983 183.536 119.807 183.455 119.612C183.375 119.418 183.333 119.21 183.333 119ZM200 119C200 118.79 200.041 118.582 200.122 118.387C200.202 118.193 200.32 118.017 200.469 117.868C200.617 117.72 200.794 117.602 200.988 117.521C201.182 117.441 201.39 117.399 201.601 117.399C201.811 117.399 202.019 117.441 202.213 117.521C202.407 117.602 202.584 117.72 202.732 117.868C202.881 118.017 202.999 118.193 203.079 118.387C203.16 118.582 203.201 118.79 203.201 119C203.201 119.21 203.16 119.418 203.079 119.612C202.999 119.807 202.881 119.983 202.732 120.132C202.584 120.28 202.407 120.398 202.213 120.479C202.019 120.559 201.811 120.601 201.601 120.601C201.39 120.601 201.182 120.559 200.988 120.479C200.794 120.398 200.617 120.28 200.469 120.132C200.32 119.983 200.202 119.807 200.122 119.612C200.041 119.418 200 119.21 200 119Z" fill="black"/>
</svg>
